<?xml version="1.0" encoding="UTF-8" standalone="no"?>
<svg
   version="1.2"
   width="162"
   height="139.5"
   viewBox="19 16.5 162 139.5"
   id="svg18"
   sodipodi:docname="tt.svg"
   inkscape:version="1.1.2 (08b2f3d93c, 2022-04-05)"
   xmlns:inkscape="http://www.inkscape.org/namespaces/inkscape"
   xmlns:sodipodi="http://sodipodi.sourceforge.net/DTD/sodipodi-0.dtd"
   xmlns="http://www.w3.org/2000/svg"
   xmlns:svg="http://www.w3.org/2000/svg">
  <defs
     id="defs22">
    <linearGradient
       id="linearGradient931"
       inkscape:swatch="solid">
      <stop
         style="stop-color:#000000;stop-opacity:1;"
         offset="0"
         id="stop929" />
    </linearGradient>
    <linearGradient
       id="linearGradient903"
       inkscape:swatch="solid">
      <stop
         style="stop-color:#0000ff;stop-opacity:1;"
         offset="0"
         id="stop901" />
    </linearGradient>
    <linearGradient
       id="linearGradient894"
       inkscape:swatch="solid">
      <stop
         style="stop-color:#0000ff;stop-opacity:1;"
         offset="0"
         id="stop892" />
    </linearGradient>
    <linearGradient
       id="linearGradient886"
       inkscape:swatch="solid">
      <stop
         style="stop-color:#0000ff;stop-opacity:1;"
         offset="0"
         id="stop884" />
    </linearGradient>
    <linearGradient
       id="linearGradient880"
       inkscape:swatch="solid">
      <stop
         style="stop-color:#0000ff;stop-opacity:1;"
         offset="0"
         id="stop878" />
    </linearGradient>
    <linearGradient
       id="linearGradient896"
       inkscape:swatch="solid">
      <stop
         style="stop-color:#000000;stop-opacity:1;"
         offset="0"
         id="stop894" />
    </linearGradient>
    <clipPath
       clipPathUnits="userSpaceOnUse"
       id="clipPath2395">
      <path
         id="path2397"
         style="fill:#ff0000;fill-opacity:1;fill-rule:nonzero;stroke:none;stroke-width:1.48215e-09"
         d="m 130.44885,15.787667 v 79.129797 h 61.15098 c -1.0726,-1.924013 -5.40089,-9.786836 -5.76102,-10.445594 -0.23911,-0.437257 -0.46576,-0.881669 -0.69898,-1.322031 -0.46277,-0.873696 -0.0838,-1.498126 0.44551,-1.498818 0.28081,-3.7e-4 0.59732,0.188857 0.86031,0.591841 0.0197,-0.122665 0.0893,-0.204127 0.14591,-0.292082 -0.0118,-0.0079 -0.0236,-0.0071 -0.0393,-0.01535 -2.30381,-1.332927 -1.75605,-3.443764 0,-3.489552 0.37047,-0.0094 0.79679,0.07544 1.25973,0.276695 -0.0315,-0.422795 -0.0315,-0.820478 -0.008,-1.191369 -0.37873,-0.917937 -0.69233,-1.534481 -0.62984,-1.437325 0.12664,0.198027 0.20411,0.426691 0.30715,0.637957 0.0869,0.05746 0.23597,0.174021 0.36851,0.276694 0.0118,-0.09882 0.0429,-0.182285 0.0614,-0.276694 -0.64667,-0.62826 -1.42329,-1.166581 -1.78975,-1.975363 -0.86326,-1.905088 1.33704,-4.430168 3.31833,-4.703974 -0.11445,-0.159303 -0.23086,-0.315654 -0.35357,-0.468862 -0.20096,-0.251469 -0.41983,-0.486043 -0.62984,-0.730193 -0.70315,-0.817935 -0.65041,-1.580595 -0.25367,-1.952304 -0.0905,-0.213139 -0.2281,-0.399211 -0.29968,-0.622585 -4.14096,-0.899437 -8.35802,-2.57666 -1.41334,-3.612528 -0.0275,-0.371537 -0.0472,-0.749055 -0.0539,-1.122193 -1.59016,-2.691345 -0.88084,-3.263864 0.26114,-6.064438 0.004,-0.0071 0.0118,-0.0087 0.0157,-0.01535 -0.0236,-0.277718 -2.4e-4,-0.159421 -0.65293,-1.483443 -1.12644,-1.980773 -2.05396,-3.192889 -2.23526,-5.710873 -0.0118,-0.186261 0.008,-0.363548 0.046,-0.545724 -0.52712,-1.132992 -0.67004,-2.34571 -0.66827,-3.58947 -0.0464,-0.26666 -0.10815,-0.482663 -0.13843,-0.81474 -0.88757,-0.428584 -1.73151,-1.503856 -2.43498,-2.359677 -0.0472,0.0043 -0.0637,0.01102 -0.11523,0.01535 -0.0574,0.0051 -0.12231,0.02164 -0.18445,0.03857 -0.62988,1.149426 -0.008,-0.16434 1.17525,2.628694 0.12821,0.302668 -0.5434,-0.374803 -0.81422,-0.561095 -1.07441,-0.949801 -1.92579,-1.932238 -2.72687,-3.036061 -0.0275,-0.01338 -0.0668,-0.02401 -0.092,-0.03857 -0.37244,-0.09433 -0.7439,-0.197555 -1.11378,-0.299756 -0.62139,-0.17166 -0.83093,-0.272169 -0.94483,-0.338204 -6.3e-4,-1.89e-4 -0.0157,2.48e-4 -0.0157,0 0.0118,0.0039 -0.11877,-0.02755 -0.4916,-0.09992 0.0507,-0.0019 0.048,0.0015 0.0846,0 -0.5364,-0.124672 -1.47784,-0.350325 -2.1815,-0.591841 -0.22103,-0.07591 -0.41967,-0.195981 -0.62218,-0.315143 -0.0393,-0.01102 -0.10186,-0.02164 -0.13057,-0.0307 -0.12742,-0.04148 -0.46159,-0.278308 -0.33783,-0.222898 0.15928,0.07245 0.31699,0.164458 0.46856,0.253633 0.31935,0.08906 0.89858,0.220852 0.67598,0.12298 -0.98242,-0.431574 -2.01322,-0.74841 -3.01877,-1.12219 -0.0775,-0.06855 -0.23675,-0.174572 -0.3685,-0.26902 -0.41236,-0.09161 -0.82413,-0.186182 -1.23672,-0.276695 0.0354,-8.81e-4 0.0503,-0.02007 -0.0315,-0.06151 -0.53526,-0.309437 -1.08935,-0.600315 -1.65147,-0.860859 0.1758,0.219042 0.35946,0.439921 0.51465,0.530352 0.16911,0.09854 0.53109,0.231438 0.81421,0.315143 -0.27412,-0.06049 -0.54819,-0.122311 -0.82188,-0.18445 -0.13844,-0.138918 -0.32839,-0.256388 -0.51465,-0.376613 0.11248,0.05856 -0.46258,-0.240096 -0.39946,-0.207511 -0.28474,0.161034 -0.75239,0.348554 -0.91407,0.491919 0.16754,0.324233 0.38778,0.595879 0.68365,0.799368 -0.81748,-0.188188 -1.07913,-0.448473 -0.68365,-0.799368 -0.19546,-0.377794 -0.35081,-0.791231 -0.51465,-1.199051 -0.1699,0.02401 -0.31895,0.01771 -0.36851,-0.12298 -0.0275,-0.07493 -0.0566,-0.148481 -0.0846,-0.222898 -0.15732,-0.104445 -0.25603,-0.18201 -0.12271,-0.146041 0.0315,0.0079 0.0488,0.02204 0.0767,0.03069 -0.0275,-0.07111 -0.0492,-0.144584 -0.0767,-0.215224 -0.28237,-0.08811 -0.56459,-0.186536 -0.83726,-0.292082 -0.0574,0.0023 -0.12152,-0.02204 -0.19192,-0.06918 -0.35356,-0.155919 -0.66901,-0.352765 -0.89102,-0.661018 -0.14394,-0.200073 -0.18524,-0.45083 -0.27648,-0.676388 -0.083,-0.09146 -0.13844,-0.09075 -0.20726,-0.138367 -0.008,-0.0051 -0.0157,-0.01063 -0.0236,-0.01535 0.002,0.06922 -0.003,0.150881 0,0.284408 0.061,0.01377 0.0743,-0.01574 0.0846,-0.04612 0.0708,0.153204 0.1577,0.292673 0.13804,0.499605 0.0157,0.02125 0.0315,0.04565 0.0614,0.09224 1.0391,1.61521 -0.40362,2.726046 -1.49019,1.698659 0.0731,0.164656 0.4793,1.05621 0.50698,1.12219 0.60051,1.431909 3.0776,7.502832 3.62557,10.222692 0.13961,0.693744 0.10146,1.407967 0.15377,2.113718 -0.14866,0.316796 -0.40205,0.60582 -0.44551,0.953091 -0.0118,0.111882 0.2281,-0.07949 0.33783,-0.0538 0.0991,0.02322 0.15849,0.112511 0.23046,0.18445 0.32446,0.324115 0.63543,0.667892 0.9525,0.999213 1.20753,1.26217 0.36339,0.337103 1.65918,1.81395 0.38502,0.471294 0.41425,0.595139 0.84493,0.899291 0.0118,0.0094 -0.0393,-0.05191 -0.0315,-0.0538 0.0503,-0.0059 0.0964,0.02912 0.14591,0.03857 0.0236,0.0047 0.0531,-0.0039 0.0767,0.0079 0.14354,0.06049 0.28159,0.132976 0.42246,0.199837 0.0964,0.116762 0.19546,0.23679 0.29182,0.353552 1.00641,1.220455 -2.53715,-0.39078 -1.42872,0.737879 0.0755,0.0769 0.15495,0.153675 0.23046,0.230572 0.07,0.0185 0.25367,0.0055 0.19979,0.0538 -0.0566,0.05089 -0.14158,-0.02755 -0.21513,-0.04612 -0.7975,-0.200506 -1.29044,-0.715868 -1.7667,-1.368153 -1.24329,-1.420831 -0.41307,-0.496448 -1.62076,-1.760145 -0.004,-0.0039 -1.42825,-1.447317 -1.52858,-1.752464 -0.14591,-0.443105 -0.15417,-0.924835 -0.14591,-1.391206 9.5e-4,-0.05931 0.12074,0.04124 0.17659,0.06147 -0.0315,-0.5927 -0.008,-1.193439 -0.12271,-1.775517 -0.53416,-2.674234 -2.96736,-8.639551 -3.54108,-10.00748 -0.41519,-0.99004 -7.54998,-16.674688 -7.78886,-17.194111 -0.1113,-0.241788 -0.23519,-0.484115 -0.35317,-0.722503 -0.14001,-0.06572 -0.2639,-0.140453 -0.28435,-0.276695 -0.0236,-0.150763 -0.0551,-0.298536 -0.0767,-0.453486 -0.0236,-0.04652 -0.0464,-0.09173 -0.0692,-0.138367 -0.26783,-0.547081 -0.20058,-0.968486 0,-1.222108 0.003,-0.03857 0.0354,-0.0769 0.0393,-0.115306 -0.0661,0.04388 -0.13135,0.09032 -0.19192,0.138367 -0.29417,-0.416707 -0.57183,-0.834531 -0.82192,-1.275916 z m 34.09736,18.800534 c 0.11209,0.03502 0.21985,0.07725 0.33036,0.115305 -0.008,-0.01377 -0.008,-0.03266 -0.0157,-0.04612 0.0653,0.07698 -0.004,-0.0075 0.046,0.0538 0.0315,0.01141 0.068,0.01889 0.0999,0.0307 -0.22063,-0.299795 -0.46463,-0.616674 -0.72207,-1.053014 -0.0354,-0.0303 -0.0649,-0.06179 -0.0999,-0.09224 0.0118,0.0037 0.0315,0.02086 0.0614,0.0307 -0.0653,-0.112905 -0.11995,-0.226951 -0.17659,-0.338204 -0.0236,-0.02322 -0.046,-0.04612 -0.0692,-0.06918 0.002,0.03621 0.008,0.07127 0.008,0.107592 0.18642,0.410351 0.36733,0.827471 0.5377,1.260545 z m 13.32708,5.418795 c 0.0236,0.0063 0.0515,0.0091 0.0767,0.01535 -0.19153,-0.264849 -0.39887,-0.503328 -0.58379,-0.791683 0.0818,0.202986 0.17383,0.401694 0.28435,0.591842 0.0405,0.07009 0.12663,0.131677 0.22259,0.18445 z M 208.0071,15.787667 c 0.27137,2.999136 0.35356,4.045365 0.76812,8.024432 0.0747,0.716132 0.1467,1.431063 0.23833,2.144456 0.0315,0.0055 0.0684,0.0087 0.0999,0.01535 0.20726,-0.32018 0.44044,-0.633859 0.75278,-0.791683 v -9.392553 z m -41.93231,8.662388 c 0.0649,0.156981 0.13253,0.312861 0.19979,0.468862 0.0791,0.05698 0.15849,0.111213 0.23046,0.161428 -0.14394,-0.209479 -0.28946,-0.418111 -0.43017,-0.63027 z m -9.85513,0.445801 c 0.0118,0.02401 0.0118,0.02951 0.0236,0.0538 v -0.0307 c -0.008,-0.0071 -0.0157,-0.01574 -0.0236,-0.02322 z m 3.04948,6.464124 c -0.004,0.02833 -0.0118,0.07225 -0.0157,0.122979 0.0118,-0.0016 0.0236,0.0016 0.0393,0 -9.8e-4,-0.03896 -0.004,-0.07198 -0.008,-0.115305 -0.004,-6.26e-4 -0.008,-0.0043 -0.0157,-0.0079 z m 0.53769,1.26823 c -0.008,0.04667 -0.004,0.108025 0,0.176776 0.0275,0.05911 0.0653,0.148048 0.092,0.207511 0.004,-0.01259 0.004,-0.0366 0.0157,-0.03857 0.0197,-0.0028 0.0578,0.04148 0.0539,0.02322 -0.0236,-0.08886 -0.0877,-0.158555 -0.11523,-0.245959 -0.0197,-0.06312 -0.0315,-0.0745 -0.046,-0.12298 z m 0.51465,1.314345 c 0.0582,0.06588 0.12979,0.133566 0.17659,0.176776 -0.0767,-0.0767 -0.12546,-0.125617 -0.17659,-0.176776 z m 7.92714,1.160622 c -0.0421,0.0013 -0.0649,0.01417 -0.10736,0.01535 -0.24305,0.110111 -0.33901,0.199601 -0.56842,0.30743 0.33587,-0.07127 0.867,-0.142578 0.67598,-0.322817 z m -1.62076,0.830115 c -0.0157,0.0091 -0.0393,0.01417 -0.0539,0.02322 0.1113,0.05994 0.19822,0.110898 0.30716,0.169102 -0.0932,-0.06182 -0.17816,-0.124042 -0.25328,-0.192163 z m 3.55643,1.229798 c 0.10264,0.09488 0.21119,0.183151 0.33035,0.24596 0.25446,0.134313 0.56177,0.134116 0.84493,0.18445 0.18288,0.03266 0.7336,0.01456 0.55308,-0.0307 -0.57376,-0.144782 -1.15099,-0.269926 -1.72833,-0.399682 z m -3.63327,0.161428 c 0.5782,0.124279 7.28223,0.847703 0.33035,0.09225 -0.18366,-0.02007 -0.18366,-0.06741 -0.33035,-0.09225 z m 14.36408,2.551832 c -0.14826,0.312389 -0.21552,0.415794 -0.32249,0.622585 0.24305,0.09457 0.48563,0.191376 0.7297,0.284408 0.0617,0.01928 0.16085,-0.0063 0.18445,0.0538 0.004,0.0122 -0.17895,0.04309 -0.44551,0.07686 0.33783,0.232461 0.68757,0.447382 1.07535,0.56878 0.0547,0.01732 0.14945,0.03109 0.2226,0.04612 -0.10422,-0.274884 -0.19153,-0.56089 -0.26114,-0.830115 -0.23518,-0.200978 -0.46718,-0.401394 -0.69131,-0.614899 -0.1644,-0.06918 -0.32761,-0.138446 -0.49161,-0.207511 z m 3.55647,4.511819 -0.008,0.0079 c 0.0531,0.101178 0.27019,0.284054 0.20726,0.207511 -0.0618,-0.07548 -0.13293,-0.143365 -0.19979,-0.215224 z m -0.19193,1.744778 c -0.0118,-0.0307 -0.11444,0.449488 -0.2226,0.93772 0.0885,-0.275278 0.17816,-0.556136 0.21513,-0.837801 0.008,-0.06537 0.0118,-0.09319 0.008,-0.09992 z m 3.96355,36.770952 c 0.0118,0.02243 0.0275,0.05203 0.0393,0.07686 0.008,-0.01692 0.008,-0.02952 0.0157,-0.04612 -0.0197,-0.0094 -0.0393,-0.02243 -0.0539,-0.0307 z" />
    </clipPath>
  </defs>
  <sodipodi:namedview
     id="namedview20"
     pagecolor="#ffffff"
     bordercolor="#666666"
     borderopacity="1.0"
     inkscape:pageshadow="2"
     inkscape:pageopacity="0.0"
     inkscape:pagecheckerboard="0"
     showgrid="false"
     inkscape:zoom="4.4251199"
     inkscape:cx="95.703621"
     inkscape:cy="52.314966"
     inkscape:window-width="2500"
     inkscape:window-height="1376"
     inkscape:window-x="1980"
     inkscape:window-y="27"
     inkscape:window-maximized="1"
     inkscape:current-layer="svg18" />
  <rect
     style="fill:none;stroke:#0000ff;stroke-width:5;stroke-miterlimit:4;stroke-dasharray:none;paint-order:stroke markers fill"
     id="rect1084"
     width="72.29509"
     height="41.290257"
     x="46.744564"
     y="72.604027" />
  <ellipse
     style="fill:none;stroke:#0000ff;stroke-width:8.26528;stroke-miterlimit:4;stroke-dasharray:none;paint-order:stroke markers fill"
     id="path957"
     cx="170.15691"
     cy="55.352249"
     rx="36.705685"
     ry="36.563644"
     clip-path="url(#clipPath2395)"
     transform="matrix(0.72204303,0.07629088,-0.07625339,0.72177746,30.217657,26.996349)" />
  <text
     xml:space="preserve"
     style="font-style:normal;font-variant:normal;font-weight:bold;font-stretch:normal;font-size:35.3974px;line-height:1.25;font-family:Arial;-inkscape-font-specification:'Arial Bold';fill:#0000ff;fill-opacity:1;stroke-width:1"
     x="62.003624"
     y="105.676"
     id="text4517"><tspan
       sodipodi:role="line"
       id="tspan4515"
       x="62.003624"
       y="105.676"
       style="stroke-width:1">TT</tspan></text>
</svg>
