<?xml version="1.0" encoding="UTF-8" standalone="no"?>
<svg
   version="1.2"
   width="162"
   height="139.5"
   viewBox="19 16.5 162 139.5"
   id="svg18"
   sodipodi:docname="tl (copy).svg"
   inkscape:version="1.1.2 (08b2f3d93c, 2022-04-05)"
   xmlns:inkscape="http://www.inkscape.org/namespaces/inkscape"
   xmlns:sodipodi="http://sodipodi.sourceforge.net/DTD/sodipodi-0.dtd"
   xmlns="http://www.w3.org/2000/svg"
   xmlns:svg="http://www.w3.org/2000/svg">
  <defs
     id="defs22">
    <linearGradient
       id="linearGradient953"
       inkscape:swatch="solid">
      <stop
         style="stop-color:#0000ff;stop-opacity:1;"
         offset="0"
         id="stop951" />
    </linearGradient>
    <linearGradient
       id="linearGradient931"
       inkscape:swatch="solid">
      <stop
         style="stop-color:#000000;stop-opacity:1;"
         offset="0"
         id="stop929" />
    </linearGradient>
    <linearGradient
       id="linearGradient903"
       inkscape:swatch="solid">
      <stop
         style="stop-color:#0000ff;stop-opacity:1;"
         offset="0"
         id="stop901" />
    </linearGradient>
    <linearGradient
       id="linearGradient894"
       inkscape:swatch="solid">
      <stop
         style="stop-color:#0000ff;stop-opacity:1;"
         offset="0"
         id="stop892" />
    </linearGradient>
    <linearGradient
       id="linearGradient886"
       inkscape:swatch="solid">
      <stop
         style="stop-color:#0000ff;stop-opacity:1;"
         offset="0"
         id="stop884" />
    </linearGradient>
    <linearGradient
       id="linearGradient880"
       inkscape:swatch="solid">
      <stop
         style="stop-color:#0000ff;stop-opacity:1;"
         offset="0"
         id="stop878" />
    </linearGradient>
    <linearGradient
       id="linearGradient896"
       inkscape:swatch="solid">
      <stop
         style="stop-color:#000000;stop-opacity:1;"
         offset="0"
         id="stop894" />
    </linearGradient>
    <clipPath
       clipPathUnits="userSpaceOnUse"
       id="clipPath1324">
      <path
         id="path1326"
         style="fill:#ff0000;fill-opacity:1;fill-rule:nonzero;stroke:none;stroke-width:1.07593e-09"
         d="m 130.44838,15.78794 -9.7e-4,13.386651 c 1.68948,0.844353 3.37938,1.687856 5.06886,2.532825 5.95528,2.97846 3.72529,1.489375 7.11077,3.989302 -0.65449,0.768375 -1.063,1.879666 -1.87189,2.433007 -10e-4,0.01628 -0.005,0.03308 -0.006,0.04933 -0.0174,-0.01353 -0.0182,-0.01279 -0.0352,-0.02604 -0.10431,0.06797 -0.21117,0.130678 -0.33012,0.178311 -0.32333,0.129482 -3.36486,-1.24992 -3.91473,-1.491238 -0.11255,-0.04941 -0.29518,-0.06386 -0.43526,-0.100118 -0.22386,0.484691 -0.31445,0.640538 -0.0646,-0.02293 -0.0773,-0.0305 -0.13478,-0.07228 -0.11599,-0.150101 0.0887,-0.365172 0.24066,-0.708003 0.40906,-1.044454 -0.59996,-0.282711 -1.12927,-0.527021 -2.13481,-1.029934 -1.22592,-0.613128 -2.45213,-1.225507 -3.67817,-1.838256 l -4.7e-4,62.262251 61.14932,0.0012 c -1.07261,-1.924012 -5.39829,-9.786567 -5.75841,-10.445327 -0.23912,-0.437256 -0.46636,-0.881985 -0.69959,-1.322347 -0.46277,-0.873695 -0.0845,-1.499438 0.44479,-1.500132 0.28081,-3.64e-4 0.59768,0.190661 0.86067,0.593644 0.0197,-0.122662 0.0882,-0.206069 0.14477,-0.294019 -0.0119,-0.0079 -0.0237,-0.0065 -0.0394,-0.01478 -2.30381,-1.332928 -1.75386,-3.442469 0.002,-3.488259 0.37047,-0.0094 0.79424,0.07447 1.25719,0.275722 -0.0322,-0.422723 -0.0301,-0.819045 -0.007,-1.189929 -0.37873,-0.917938 -0.69312,-1.535032 -0.63063,-1.437875 0.12658,0.198033 0.20514,0.427246 0.30818,0.638512 0.087,0.05745 0.23463,0.172413 0.36717,0.275085 0.0119,-0.09883 0.0443,-0.182824 0.0627,-0.277224 -0.64668,-0.62826 -1.42461,-1.1667 -1.79106,-1.975483 -0.86325,-1.905089 1.33887,-4.428369 3.32017,-4.702175 -0.11446,-0.159302 -0.23244,-0.315274 -0.35515,-0.468482 -0.20095,-0.25147 -0.41909,-0.487623 -0.62909,-0.731775 -0.70316,-0.817932 -0.65149,-1.579443 -0.25481,-1.951148 -0.0905,-0.213137 -0.22687,-0.399929 -0.29845,-0.623303 -4.14097,-0.899437 -8.35943,-2.575926 -1.41474,-3.611795 -0.0282,-0.371469 -0.0469,-0.749596 -0.0536,-1.122732 -1.59016,-2.691345 -0.87901,-3.264293 0.26298,-6.064868 0.003,-0.007 0.0102,-0.0084 0.0146,-0.01512 -0.0238,-0.277699 9.4e-4,-0.160329 -0.65177,-1.484349 -1.12643,-1.980775 -2.05539,-3.190669 -2.2367,-5.708652 -0.0114,-0.186306 0.01,-0.364069 0.0478,-0.546256 -0.52712,-1.132991 -0.6704,-2.346775 -0.66863,-3.590535 -0.0464,-0.266655 -0.10967,-0.481163 -0.14003,-0.813232 -0.88757,-0.428585 -1.73162,-1.506196 -2.43509,-2.362016 -0.0472,0.0043 -0.0629,0.01316 -0.11449,0.0175 -0.0574,0.0051 -0.1232,0.02161 -0.18529,0.03852 -0.62988,1.149427 -0.008,-0.165286 1.17558,2.627739 0.12822,0.302667 -0.54309,-0.374411 -0.81391,-0.560704 -1.07442,-0.949801 -1.92446,-1.933756 -2.72554,-3.037581 -0.0269,-0.01305 -0.0652,-0.02241 -0.0904,-0.03644 0,0 -0.003,2.9e-4 -0.003,2.9e-4 -0.37244,-0.09433 -0.74398,-0.199493 -1.11386,-0.301695 -0.62139,-0.171661 -0.83073,-0.272489 -0.94463,-0.338525 -6.3e-4,-1.9e-4 -0.016,0.0019 -0.016,0.0017 0.0115,0.0039 -0.11921,-0.02716 -0.49201,-0.09953 0.0506,-0.0019 0.0499,5.43e-4 0.0865,-9.65e-4 -0.5364,-0.124671 -1.47956,-0.350342 -2.18322,-0.591858 -0.22103,-0.07591 -0.42053,-0.196528 -0.62303,-0.315692 -0.0393,-0.01102 -0.1016,-0.02046 -0.13026,-0.02953 -0.12736,-0.04149 -0.4612,-0.279518 -0.33744,-0.224108 0.15927,0.07244 0.31613,0.164462 0.4677,0.253636 0.31934,0.08905 0.90103,0.220995 0.67843,0.123123 -0.98242,-0.431575 -2.01551,-0.749193 -3.02105,-1.122974 -0.0775,-0.06855 -0.23459,-0.172607 -0.36633,-0.267056 -0.41236,-0.09161 -0.82588,-0.187188 -1.23846,-0.277702 0.0354,-8.28e-4 0.0509,-0.02023 -0.0309,-0.06167 -0.53527,-0.309436 -1.0894,-0.598581 -1.65151,-0.859127 0.1758,0.219043 0.36062,0.439542 0.51582,0.529973 0.16911,0.09855 0.52915,0.230927 0.81226,0.314633 -0.27412,-0.06048 -0.54641,-0.121777 -0.82011,-0.183916 -0.13848,-0.138912 -0.32978,-0.258188 -0.51604,-0.378414 0.11255,0.05855 -0.46096,-0.239485 -0.39784,-0.2069 -0.28475,0.161038 -0.75476,0.348576 -0.91644,0.491941 0.16748,0.32424 0.38902,0.595449 0.68488,0.798939 -0.81747,-0.188189 -1.08036,-0.448045 -0.68488,-0.798939 -0.19545,-0.377794 -0.34956,-0.790788 -0.5134,-1.198609 -0.16989,0.02405 -0.31783,0.01716 -0.3674,-0.123525 -0.0274,-0.07494 -0.0579,-0.149224 -0.0858,-0.223647 -0.15733,-0.104447 -0.25671,-0.179874 -0.12337,-0.143908 0.0315,0.0079 0.051,0.0209 0.0789,0.02954 -0.0272,-0.0703 -0.0497,-0.143881 -0.0767,-0.213781 0.11214,0.03502 0.22071,0.07576 0.33121,0.113821 -0.008,-0.01373 -0.008,-0.03361 -0.016,-0.04702 0.0653,0.07697 -0.003,-0.0067 0.0464,0.05464 0.0315,0.01141 0.0687,0.01815 0.10053,0.02997 -0.22064,-0.299793 -0.465,-0.615698 -0.72244,-1.052038 -0.0355,-0.03029 -0.064,-0.06191 -0.0991,-0.09236 0.0115,0.0038 0.0303,0.02168 0.0601,0.03153 -0.0652,-0.112905 -0.11971,-0.227298 -0.17641,-0.338544 -0.0236,-0.02322 -0.0462,-0.04537 -0.0694,-0.06843 0.002,0.03617 0.009,0.07101 0.009,0.107341 0.18642,0.410351 0.36557,0.82539 0.53594,1.258465 -0.28236,-0.08811 -0.56676,-0.184568 -0.83942,-0.290114 -0.0574,0.0023 -0.12087,-0.02194 -0.19124,-0.06908 -0.35356,-0.155918 -0.66741,-0.352707 -0.88942,-0.660962 -0.14397,-0.200069 -0.18589,-0.451414 -0.27707,-0.676977 -0.0829,-0.09147 -0.13778,-0.09019 -0.20661,-0.137816 -0.007,-0.0052 -0.0181,-0.01152 -0.0261,-0.01618 0.002,0.06924 -0.003,0.150579 2.3e-4,0.284105 0.061,0.01377 0.074,-0.01641 0.0842,-0.04678 0.0708,0.153209 0.159,0.292479 0.1393,0.499415 0.0161,0.0212 0.0314,0.04705 0.0613,0.09365 1.0391,1.61521 -0.40318,2.724563 -1.48975,1.697175 0.0731,0.16466 0.4778,1.057699 0.50548,1.123678 0.60051,1.43191 3.07959,7.5015 3.62756,10.221361 0.13961,0.693743 0.10089,1.410378 0.15313,2.116137 -0.14867,0.316797 -0.40252,0.60367 -0.44598,0.950941 -0.0117,0.11187 0.2283,-0.07765 0.33805,-0.05197 0.0991,0.02322 0.15844,0.112073 0.23041,0.184007 0.32446,0.324115 0.63499,0.666682 0.95207,0.998001 1.20752,1.262171 0.36452,0.336566 1.66031,1.813412 0.38503,0.471293 0.41378,0.596984 0.84446,0.901136 0.0121,0.0094 -0.0405,-0.05149 -0.0326,-0.05338 0.0503,-0.0059 0.0979,0.02908 0.14742,0.03853 0.0236,0.0047 0.0531,-0.0037 0.0766,0.0081 0.1435,0.06049 0.28049,0.13214 0.42135,0.199002 0.0964,0.116762 0.19525,0.236667 0.29161,0.35343 1.00641,1.220454 -2.53716,-0.390446 -1.42873,0.738214 0.0756,0.07689 0.15704,0.152886 0.23255,0.229783 0.07,0.0185 0.25173,0.0066 0.19785,0.05486 -0.0565,0.05088 -0.13978,-0.02924 -0.21333,-0.04781 -0.7975,-0.200506 -1.29104,-0.714154 -1.76731,-1.366438 -1.24329,-1.420831 -0.41459,-0.496909 -1.62229,-1.760605 -0.005,-0.0038 -1.42635,-1.446623 -1.52667,-1.75177 -0.14596,-0.4431 -0.15519,-0.925217 -0.14696,-1.391584 6.6e-4,-0.05929 0.12093,0.03956 0.17672,0.05979 -0.0316,-0.592693 -0.008,-1.193621 -0.12258,-1.775704 -0.53416,-2.674235 -2.96618,-8.638099 -3.5399,-10.006029 -0.41519,-0.99004 -7.55218,-16.673576 -7.79105,-17.192999 -0.11127,-0.241793 -0.23432,-0.484759 -0.35228,-0.723149 -0.14004,-0.06572 -0.26324,-0.142256 -0.28369,-0.278498 -0.0242,-0.150696 -0.0559,-0.296881 -0.0775,-0.451828 -0.0236,-0.04652 -0.046,-0.09221 -0.0688,-0.13885 -0.26783,-0.54708 -0.1999,-0.969559 5.9e-4,-1.223171 0.003,-0.03855 0.0354,-0.0767 0.0392,-0.115095 -0.0661,0.04389 -0.13299,0.09148 -0.19356,0.139527 -0.29416,-0.416708 -0.57183,-0.83556 -0.82192,-1.276945 z m 47.42564,24.220021 c 0.0237,0.0062 0.052,0.0072 0.0772,0.0135 -0.19153,-0.264849 -0.39901,-0.502312 -0.58393,-0.790667 0.0818,0.202983 0.17391,0.402168 0.28436,0.592323 0.0405,0.07009 0.12641,0.132084 0.2224,0.184853 z m 30.13193,-24.221295 c 0.27131,2.999142 0.35453,4.046797 0.76921,8.025852 0.0747,0.716132 0.14566,1.431732 0.23762,2.14509 0.0315,0.0055 0.07,0.007 0.10157,0.01362 0.20726,-0.32018 0.43995,-0.633368 0.75229,-0.791192 l 8.1e-4,-9.392588 z m -51.78559,9.107814 c 0.0122,0.02396 0.0101,0.03021 0.022,0.05451 l 0.002,-0.03001 c -0.008,-0.0071 -0.0163,-0.01702 -0.0242,-0.0245 z m 9.85345,-0.443471 c 0.0649,0.15698 0.13369,0.312543 0.20097,0.468543 0.0791,0.05697 0.15858,0.109426 0.23055,0.159637 -0.14399,-0.209472 -0.2908,-0.416022 -0.43152,-0.62818 z m -6.8039,6.90777 c -0.004,0.02832 -0.0128,0.0728 -0.0167,0.123537 0.0123,-0.0017 0.0249,0.0028 0.0407,0.0011 -0.001,-0.03891 -0.005,-0.0721 -0.009,-0.115357 -0.004,-6.02e-4 -0.006,-0.0057 -0.0148,-0.0092 z m 0.53708,1.269167 c -0.008,0.04661 -0.004,0.107167 -3.9e-4,0.175931 0.0274,0.05911 0.0657,0.149956 0.0925,0.209413 0.004,-0.01264 0.003,-0.03746 0.0148,-0.03944 0.0196,-0.0028 0.0578,0.04233 0.0539,0.02406 -0.0237,-0.08886 -0.0878,-0.160178 -0.11547,-0.24757 -0.0191,-0.06318 -0.0309,-0.0739 -0.0453,-0.122394 z m 0.51485,1.314814 c 0.0582,0.06588 0.12872,0.133069 0.1755,0.176282 -0.0767,-0.0767 -0.12443,-0.125118 -0.1755,-0.176282 z m 7.92634,1.15922 c -0.0421,0.0013 -0.064,0.01549 -0.1064,0.01665 -0.24306,0.110106 -0.33876,0.198471 -0.56816,0.306298 0.33587,-0.07127 0.86562,-0.142716 0.6746,-0.322961 z m -1.61905,0.831393 c -0.0156,0.0091 -0.0399,0.01295 -0.0545,0.02199 0.11131,0.05993 0.19849,0.112247 0.30743,0.170454 -0.0932,-0.06182 -0.17783,-0.124328 -0.25294,-0.192449 z m -0.0776,1.390967 c 0.57819,0.12428 7.28083,0.847865 0.32896,0.09242 -0.18368,-0.02007 -0.18227,-0.06758 -0.32896,-0.09242 z m 3.63193,-0.161998 c 0.10267,0.09487 0.21253,0.183555 0.33169,0.246363 0.25445,0.134315 0.56129,0.133716 0.84446,0.184048 0.18287,0.03267 0.7347,0.01644 0.55418,-0.02882 -0.57376,-0.144782 -1.15299,-0.271845 -1.73033,-0.401601 z m 10.73059,2.713714 c -0.14825,0.312389 -0.21396,0.417037 -0.32093,0.623828 0.24304,0.09457 0.48637,0.189659 0.73045,0.282691 0.0617,0.01927 0.16059,-0.0064 0.18419,0.05359 0.004,0.01218 -0.17976,0.04318 -0.44632,0.07694 0.33783,0.23246 0.6869,0.449625 1.07467,0.571023 0.0547,0.01731 0.1506,0.02897 0.22377,0.044 -0.10424,-0.274883 -0.19124,-0.561004 -0.2608,-0.830233 -0.23519,-0.200978 -0.4683,-0.40063 -0.69243,-0.614135 -0.1644,-0.06917 -0.32859,-0.138644 -0.4926,-0.207708 z m 3.5574,4.511013 -0.007,0.009 c 0.0531,0.101183 0.26886,0.284787 0.20593,0.208244 -0.0619,-0.07548 -0.13195,-0.145254 -0.19875,-0.21712 z m -0.19154,1.746669 c -0.0116,-0.03073 -0.11465,0.449944 -0.22282,0.938177 0.0885,-0.27528 0.1773,-0.558193 0.21427,-0.839858 0.008,-0.06537 0.0123,-0.0916 0.009,-0.09832 z m 3.96429,36.769444 c 0.0121,0.0224 0.026,0.05235 0.0379,0.07717 0.008,-0.01691 0.009,-0.02851 0.0169,-0.04508 -0.0197,-0.0094 -0.0402,-0.02382 -0.0548,-0.03209 z" />
    </clipPath>
    <clipPath
       clipPathUnits="userSpaceOnUse"
       id="clipPath1358">
      <path
         id="path1360"
         style="fill:#ff0000;fill-opacity:1;fill-rule:nonzero;stroke:none"
         d="M 1.169922,9.0234375 V 65.507812 H 55.640625 V 11.580078 c -0.07611,-0.04502 -0.139702,-0.09511 -0.181641,-0.154297 -1.054329,-1.4879643 -0.56606,-1.420796 0.181641,-1.9453122 V 9.2246094 c -0.0067,0.00261 -0.02402,0.00967 -0.0293,0.011719 0.01211,-0.031882 0.01864,-0.065391 0.0293,-0.097656 V 9.023438 Z" />
    </clipPath>
    <clipPath
       clipPathUnits="userSpaceOnUse"
       id="clipPath1368">
      <path
         id="path1370"
         style="fill:#ff0000;fill-opacity:1;fill-rule:nonzero;stroke:none"
         d="M 40.730469,-20.951172 V 35.533203 H 88.84375 c -1.667842,-1.61696 -3.338167,-3.230207 -4.966797,-4.886719 -1.973849,-2.007641 -3.69197,-4.270321 -5.78125,-6.167968 -1.000609,-0.90883 -0.81854,-1.854617 -0.152344,-2.13086 -0.06651,-0.0502 -0.09342,-0.05885 -0.18164,-0.128906 -0.122532,-0.09729 -0.214658,-0.229275 -0.335938,-0.328125 -0.447496,-0.364739 -0.02818,0.02413 -0.298828,-0.144531 -0.154864,-0.09651 -0.300457,-0.205724 -0.451172,-0.308594 -0.337285,-0.294254 -0.860487,-0.514995 -0.867187,-1.076172 -0.009,-0.756307 0.49031,-0.741634 0.955078,-0.855469 1.233195,0.193162 2.489476,0.305135 3.722656,0.509766 0.09839,-0.146247 0.213107,-0.28275 0.333984,-0.414063 0.0035,-0.173834 0.0087,-0.34762 0.01172,-0.521484 0.02477,-1.42362 0.01975,-2.847621 0.01563,-4.271484 -6.306326,0.0053 -5.637403,-2.138302 -3.4375,-4.25 -0.01718,-0.533223 -0.01162,-1.2246339 -0.05078,-2.3046878 -0.04157,-1.1464991 0.0901,-1.8127922 0.345703,-2.1289062 -0.441495,0.140047 -0.87981,0.275761 -1.416016,0.4472656 -0.956941,0.3060768 -1.911935,0.6204129 -2.882812,0.8789063 -2.657676,0.7075986 -3.501559,0.8342442 -5.914062,1.2949219 -0.881714,0.1526178 -1.762257,0.3096623 -2.644532,0.4589843 -0.966323,0.6617952 -2.103164,1.3581529 -2.853515,1.6582029 -1.849756,0.739678 -2.478931,0.764439 -4.232422,1.042969 -0.271962,-0.0206 -1.955597,0.0094 -2.302735,-0.480469 -1.25589,-1.7724254 -0.327835,-1.329054 0.626954,-2.3203122 0.08722,-0.090547 -0.363164,0.087502 -0.47461,0.1308593 0.335199,-0.8826466 0.09283,-1.9173268 0.429688,-2.7988281 0.05008,-0.131046 0.107844,-0.259342 0.162109,-0.388672 -0.228171,-0.01635 -0.467015,0.04463 -0.689453,-0.01172 -0.480739,-0.121775 -0.78937,-0.518952 -1.082031,-0.888671 -0.0015,-3.94e-4 -0.0083,-0.0016 -0.0098,-0.002 -0.168727,-0.04504 -0.323037,-0.134328 -0.484375,-0.201172 0.292842,-0.6637 0.517146,-1.361714 0.875,-1.992187 -0.04462,-0.01533 -0.07058,-0.02884 -0.02539,-0.03711 0.01428,-0.0026 0.02869,0.0051 0.04297,0.0039 0.0048,-0.0083 0.0088,-0.01707 0.01367,-0.02539 0.0458,-0.07826 0.180898,0.02024 0.267578,0.04687 0.0186,0.0057 0.0327,0.01355 0.05078,0.01953 0.07039,0.01981 0.140325,0.04293 0.210938,0.05273 0.355537,0.04937 0.710305,0.10748 1.068359,0.132812 0.397427,0.02812 0.795062,0.04885 1.19336,0.0625 0.326657,-0.644821 0.604654,-1.354557 1.18164,-1.769531 2.741962,-1.972046 4.86192,-2.295696 7.84961,-3.011719 0.464608,-1.211987 0.949992,-2.378334 1.251953,-2.724609 0.123014,-0.141066 0.271734,-0.291529 0.425781,-0.443359 -0.07479,-0.159068 -0.205588,-0.491501 -0.542969,-1.517578 -0.381835,-1.161282 -0.743625,-2.328596 -1.058593,-3.509766 -0.987066,-3.701575 -1.68107,-7.482717 -2.679688,-11.183594 z m 36.679687,31.509766 c 0.04401,1.366286 0.290317,1.396749 2.017578,1.990234 -0.202903,-0.313278 -0.402051,-0.620526 -0.644531,-1.005859 -0.207173,-0.329226 -0.325294,-1.041948 -0.341797,-1.6328128 -0.0275,-0.060865 -0.05548,-0.1213381 -0.08008,-0.1816406 -0.33249,0.2740784 -0.658644,0.5492794 -0.951172,0.8300784 z m 2.017578,1.990234 c 0.579506,0.894744 1.027368,1.522283 1.421875,1.955078 -7.01e-4,-0.19922 0.0028,-0.398444 0.002,-0.597656 -0.697357,-0.241821 -0.898639,-0.653235 -0.972656,-1.197266 -0.163383,-0.05854 -0.308871,-0.111262 -0.451172,-0.160156 z m 0.451172,0.160156 c 0.09729,0.03486 0.216587,0.08175 0.322266,0.121094 0.03575,-0.07658 0.07777,-0.149451 0.121094,-0.222656 -0.166855,-0.187986 -0.338324,-0.372339 -0.496094,-0.566406 0.01339,0.240291 0.02486,0.46306 0.05273,0.667968 z m 7.642578,-33.660156 c -0.03893,0.182141 -0.07647,0.368227 -0.115234,0.582031 0.0207,0.01237 0.09016,0.05425 0.107422,0.06445 0.374492,0.221348 0.793444,0.45439 1.207031,0.6875 0.08982,-0.254826 0.135189,-0.535116 0.226563,-0.789062 0.02178,-0.03762 0.02465,-0.04842 0.04492,-0.08398 -0.130728,-0.05897 -0.257791,-0.129 -0.373047,-0.228516 -0.142692,-0.07736 -0.284646,-0.155911 -0.427735,-0.232422 z m 3.558594,1.097656 c -0.03393,0.143962 -0.05932,0.292335 -0.09961,0.433594 -0.106803,0.309238 -0.116048,0.672174 -0.320313,0.927734 -0.0097,0.01216 -0.02523,0.02872 -0.03516,0.04102 0.45451,0.311451 0.883477,0.652802 1.277344,1.025391 0.04367,0.0041 0.08717,0.0098 0.130859,0.01367 0.641006,0.057 1.15963,0.112481 1.630859,0.160156 -0.08276,-0.359015 -0.202434,-0.704932 -0.414062,-0.994141 -0.273396,-0.373622 -0.721821,-0.580474 -1.095703,-0.853515 -0.353282,-0.257997 -0.700355,-0.527952 -1.074219,-0.753907 z m 0.539063,5.597657 c 0.02195,0.09921 0.0418,0.196203 0.06055,0.292968 0.04583,-0.002 0.08588,-0.0077 0.123046,-0.01367 0.01207,-0.01934 0.01905,-0.03122 0.03125,-0.05078 0.0063,-0.004 0.01319,-0.0096 0.01953,-0.01367 -0.07734,-0.0725 -0.156647,-0.142783 -0.234375,-0.214843 z m 1.636718,2.279297 c -0.01845,0.0073 -0.0359,0.01692 -0.05469,0.02344 -0.06078,0.09662 -0.108177,0.173408 -0.171875,0.275391 0.07016,-0.10354 0.144195,-0.203339 0.226562,-0.298828 z m -0.259765,0.349609 c -0.0507,0.0813 -0.08339,0.135657 -0.134766,0.21875 0.0046,1.22e-4 0.0091,-1.17e-4 0.01367,0 0.04153,-0.07203 0.07563,-0.149308 0.121094,-0.21875 z m -20.28711,3.345703 c -7.05e-4,0.03061 -0.0033,0.06118 -0.0039,0.0918 0.08972,0.0825 0.138654,0.110395 0.0625,-0.0078 -0.01848,-0.02869 -0.03992,-0.05541 -0.05859,-0.08398 z m 0.871094,2.628906 c -0.228632,0.09928 -0.461519,0.217207 -0.695312,0.339844 0.055,0.188226 0.115319,0.374061 0.166015,0.564453 0.221164,0.908466 -0.02543,1.724572 -0.33789,2.548828 0.01721,-0.09501 0.03292,-0.190292 0.05078,-0.285156 0.48886,-2.597081 -1.376382,-0.638046 -2.869141,0.501953 0.926509,-0.104832 1.850255,-0.194946 2.816407,-0.208984 0.345304,-0.005 0.693482,-0.0046 1.052734,0.0098 0.01145,4.59e-4 0.02546,-2.37e-4 0.03711,0 0.08816,-0.04311 0.175209,-0.08837 0.263672,-0.130859 -0.02526,-0.0975 -0.02988,-0.209537 -0.05469,-0.304688 -0.02381,-0.09134 -0.365255,-1.505873 -0.390625,-1.759765 -0.057,-0.570422 -0.05479,-0.916366 -0.03906,-1.275391 z m 3.208984,1.396485 c 0.01417,0.123963 0.02018,0.178843 0.03711,0.332031 3.92e-4,0.0033 0.0016,0.0065 0.002,0.0098 0.02302,0.03395 0.04301,0.06982 0.06641,0.103515 -0.03048,-0.142232 -0.05762,-0.284988 -0.07617,-0.429687 -0.0098,-0.0052 -0.01952,-0.01044 -0.0293,-0.01563 z m -1.49414,4.457031 c -0.259696,0.137295 -0.592281,0.248751 -0.97461,0.361328 -0.08732,0.02571 -0.178203,0.02548 -0.269531,0.02734 0.169796,-0.0048 0.331027,0.0081 0.449219,0.115234 0.105042,0.09524 0.128877,0.247572 0.121094,0.404297 C 74.998542,0.976485 75.361637,0.848076 75.796875,0.693355 75.574377,0.520161 75.397146,0.360506 75.294922,0.201168 Z m -5.4375,0.07813 c -0.503224,0.05752 -1.027279,0.11572 -1.56836,0.179687 -0.197341,0.514254 -0.415465,1.071254 -0.49414,1.279297 0.06011,0.01049 0.120621,0.01939 0.177734,0.03516 0.37009,-0.286961 0.735858,-0.583767 1.105469,-0.88086 0.341038,-0.274126 0.542873,-0.426575 0.779297,-0.613281 z M 65.748047,0.95313 c -1.777024,0.408915 -3.891093,0.95512 -5.037109,1.720703 -0.158012,0.105557 -0.289394,0.239522 -0.404297,0.388672 0.519223,-0.05589 1.03887,-0.09363 1.560547,-0.101562 0.222846,-0.286142 0.94525,-0.596423 1.140624,-0.6875 0.762378,-0.355394 1.607541,-0.437156 2.447266,-0.498047 0.03209,-0.09062 0.213858,-0.593776 0.292969,-0.822266 z m 6.683594,0.173828 c -0.470188,0.365538 -0.854255,0.670693 -1.228516,0.966797 0.286519,-0.07317 0.573242,-0.14552 0.859375,-0.220703 0.0571,-0.08599 0.234124,-0.322697 0.242188,-0.345703 0.05588,-0.15946 0.08674,-0.271722 0.126953,-0.400391 z m 5.398437,1.222656 c -0.178868,0.06843 -0.356067,0.14109 -0.535156,0.208985 -0.983695,0.37293 -1.983103,0.703053 -2.97461,1.054687 -0.315903,0.08127 -0.621662,0.161414 -0.933593,0.244141 -0.370717,0.643049 -0.76663,1.237745 -1.128907,1.55664 0.172277,-0.04469 0.30053,-0.07458 0.490235,-0.125 C 73.70242,5.035416 74.640433,4.723379 75.582031,4.425786 76.455997,4.149569 77.274487,3.908999 78.064453,3.626958 77.962402,3.096637 77.902185,2.752429 77.830078,2.349614 Z M 56.328125,3.929693 c 0.007,0.0041 0.01344,0.01041 0.02148,0.01562 -0.0056,-0.003 -0.0075,-0.01174 -0.01367,-0.01367 -0.0017,-5.33e-4 -0.006,-0.0014 -0.0078,-0.002 z m 22.375,1.851562 c -0.131944,0.04593 -0.250555,0.09691 -0.388672,0.142578 0.160839,0.03016 0.332968,0.09439 0.523438,0.208984 -0.04966,-0.10833 -0.08801,-0.237738 -0.134766,-0.351562 z M 64.595703,6.121099 c -0.277708,0.03997 -0.557239,0.0681 -0.835937,0.103515 0.02321,0.07869 0.0426,0.16623 0.07031,0.22461 0.06981,0.1470632 0.200761,0.2596172 0.271484,0.4062498 0.02247,0.046597 -0.0095,0.1053939 0,0.15625 0.0015,0.00783 0.0043,0.015615 0.0059,0.023437 0.0058,-9.868e-4 0.01178,-9.664e-4 0.01758,-0.00195 0.124133,-0.089419 0.24737,-0.1796256 0.365234,-0.2773437 0.04499,-0.037301 0.142641,-0.1591392 0.234375,-0.2714844 -0.05696,-0.106048 -0.100971,-0.225931 -0.128906,-0.363281 z m -3.103515,0.324218 c -1.029697,0.069669 -2.061817,0.1006724 -3.091797,0.05274 -0.04153,0.093292 -0.08782,0.1840526 -0.125,0.2792968 -0.344075,0.8813481 -0.122792,1.9136649 -0.38086,2.8222656 1.055898,-0.1469848 1.784563,-0.2450001 3.03711,-0.7304688 0.429696,-0.1665437 0.83208,-0.394578 1.230468,-0.6289062 -0.02347,-0.1124079 -0.0371,-0.2119863 -0.04687,-0.3007813 C 62.068589,7.8692721 61.968198,7.73731 61.95313,7.7070412 61.661599,7.1213767 61.597216,6.8708555 61.492193,6.445322 Z M 56.560547,9.45313 c -0.01598,-0.028037 -0.01594,0.062363 -0.02344,0.09375 l 0.09375,0.013672 c -0.02287,-0.0356 -0.04982,-0.071451 -0.07031,-0.107422 z m 26.929687,6.642578 c -0.101877,0.01539 -0.205155,0.03322 -0.355468,0.08008 -0.01253,0.0039 -0.01841,0.01567 -0.0293,0.02149 7.3e-5,0.178387 0.0026,0.356792 0.002,0.535156 0.213858,-0.03219 0.427267,-0.05241 0.640625,-0.07031 -0.137634,-0.23898 -0.219669,-0.421148 -0.257813,-0.566406 z M 87.875,29.392578 c -0.0044,0.01492 -5.1e-4,0.03006 -0.0059,0.04492 -0.01661,0.04615 -0.0501,0.08259 -0.07617,0.123047 0.07462,0.06329 0.150617,0.121416 0.220703,0.203125 0.174869,0.39589 0.140807,0.196685 0.123047,0.599609 -0.01478,0.335258 -0.126313,0.328998 -0.267578,0.207031 0.267021,0.314607 0.536386,0.639336 0.828125,0.91211 0.330582,0.309093 0.698226,0.596652 1.074218,0.849609 l -0.482422,0.484375 c 0.0046,0.0045 0.009,0.0092 0.01367,0.01367 0.433867,-0.414228 0.959872,-0.906689 0.558594,-0.427734 l -0.449178,0.53516 c 0.384921,0.373026 0.769348,0.746108 1.154297,1.119141 0.505966,0.490303 1.009076,0.984299 1.513672,1.476562 h 3.123047 V 33.097656 C 92.745249,31.891867 90.30552,30.650381 87.875,29.392578 Z m -0.498047,0.603516 c -0.007,0.0065 -0.01455,0.01295 -0.02148,0.01953 0.02278,0.02281 0.04573,0.04539 0.06836,0.06836 0.0049,-0.0048 0.0088,-0.0089 0.01367,-0.01367 -0.02039,-0.02539 -0.04089,-0.05102 -0.06055,-0.07422 z m 0.07422,0.0918 c -0.0034,0.0045 -0.0063,0.0092 -0.0098,0.01367 0.03618,0.03678 0.07317,0.0727 0.109375,0.109376 -0.03484,-0.04489 -0.06568,-0.08044 -0.09961,-0.123047 z" />
    </clipPath>
    <clipPath
       clipPathUnits="userSpaceOnUse"
       id="clipPath1368-6">
      <path
         id="path1370-7"
         style="fill:#ff0000;fill-opacity:1;fill-rule:nonzero;stroke:none"
         d="M 40.730469,-20.951172 V 35.533203 H 88.84375 c -1.667842,-1.61696 -3.338167,-3.230207 -4.966797,-4.886719 -1.973849,-2.007641 -3.69197,-4.270321 -5.78125,-6.167968 -1.000609,-0.90883 -0.81854,-1.854617 -0.152344,-2.13086 -0.06651,-0.0502 -0.09342,-0.05885 -0.18164,-0.128906 -0.122532,-0.09729 -0.214658,-0.229275 -0.335938,-0.328125 -0.447496,-0.364739 -0.02818,0.02413 -0.298828,-0.144531 -0.154864,-0.09651 -0.300457,-0.205724 -0.451172,-0.308594 -0.337285,-0.294254 -0.860487,-0.514995 -0.867187,-1.076172 -0.009,-0.756307 0.49031,-0.741634 0.955078,-0.855469 1.233195,0.193162 2.489476,0.305135 3.722656,0.509766 0.09839,-0.146247 0.213107,-0.28275 0.333984,-0.414063 0.0035,-0.173834 0.0087,-0.34762 0.01172,-0.521484 0.02477,-1.42362 0.01975,-2.847621 0.01563,-4.271484 -6.306326,0.0053 -5.637403,-2.138302 -3.4375,-4.25 -0.01718,-0.533223 -0.01162,-1.2246339 -0.05078,-2.3046878 -0.04157,-1.1464991 0.0901,-1.8127922 0.345703,-2.1289062 -0.441495,0.140047 -0.87981,0.275761 -1.416016,0.4472656 -0.956941,0.3060768 -1.911935,0.6204129 -2.882812,0.8789063 -2.657676,0.7075986 -3.501559,0.8342442 -5.914062,1.2949219 -0.881714,0.1526178 -1.762257,0.3096623 -2.644532,0.4589843 -0.966323,0.6617952 -2.103164,1.3581529 -2.853515,1.6582029 -1.849756,0.739678 -2.478931,0.764439 -4.232422,1.042969 -0.271962,-0.0206 -1.955597,0.0094 -2.302735,-0.480469 -1.25589,-1.7724254 -0.327835,-1.329054 0.626954,-2.3203122 0.08722,-0.090547 -0.363164,0.087502 -0.47461,0.1308593 0.335199,-0.8826466 0.09283,-1.9173268 0.429688,-2.7988281 0.05008,-0.131046 0.107844,-0.259342 0.162109,-0.388672 -0.228171,-0.01635 -0.467015,0.04463 -0.689453,-0.01172 -0.480739,-0.121775 -0.78937,-0.518952 -1.082031,-0.888671 -0.0015,-3.94e-4 -0.0083,-0.0016 -0.0098,-0.002 -0.168727,-0.04504 -0.323037,-0.134328 -0.484375,-0.201172 0.292842,-0.6637 0.517146,-1.361714 0.875,-1.992187 -0.04462,-0.01533 -0.07058,-0.02884 -0.02539,-0.03711 0.01428,-0.0026 0.02869,0.0051 0.04297,0.0039 0.0048,-0.0083 0.0088,-0.01707 0.01367,-0.02539 0.0458,-0.07826 0.180898,0.02024 0.267578,0.04687 0.0186,0.0057 0.0327,0.01355 0.05078,0.01953 0.07039,0.01981 0.140325,0.04293 0.210938,0.05273 0.355537,0.04937 0.710305,0.10748 1.068359,0.132812 0.397427,0.02812 0.795062,0.04885 1.19336,0.0625 0.326657,-0.644821 0.604654,-1.354557 1.18164,-1.769531 2.741962,-1.972046 4.86192,-2.295696 7.84961,-3.011719 0.464608,-1.211987 0.949992,-2.378334 1.251953,-2.724609 0.123014,-0.141066 0.271734,-0.291529 0.425781,-0.443359 -0.07479,-0.159068 -0.205588,-0.491501 -0.542969,-1.517578 -0.381835,-1.161282 -0.743625,-2.328596 -1.058593,-3.509766 -0.987066,-3.701575 -1.68107,-7.482717 -2.679688,-11.183594 z m 36.679687,31.509766 c 0.04401,1.366286 0.290317,1.396749 2.017578,1.990234 -0.202903,-0.313278 -0.402051,-0.620526 -0.644531,-1.005859 -0.207173,-0.329226 -0.325294,-1.041948 -0.341797,-1.6328128 -0.0275,-0.060865 -0.05548,-0.1213381 -0.08008,-0.1816406 -0.33249,0.2740784 -0.658644,0.5492794 -0.951172,0.8300784 z m 2.017578,1.990234 c 0.579506,0.894744 1.027368,1.522283 1.421875,1.955078 -7.01e-4,-0.19922 0.0028,-0.398444 0.002,-0.597656 -0.697357,-0.241821 -0.898639,-0.653235 -0.972656,-1.197266 -0.163383,-0.05854 -0.308871,-0.111262 -0.451172,-0.160156 z m 0.451172,0.160156 c 0.09729,0.03486 0.216587,0.08175 0.322266,0.121094 0.03575,-0.07658 0.07777,-0.149451 0.121094,-0.222656 -0.166855,-0.187986 -0.338324,-0.372339 -0.496094,-0.566406 0.01339,0.240291 0.02486,0.46306 0.05273,0.667968 z m 7.642578,-33.660156 c -0.03893,0.182141 -0.07647,0.368227 -0.115234,0.582031 0.0207,0.01237 0.09016,0.05425 0.107422,0.06445 0.374492,0.221348 0.793444,0.45439 1.207031,0.6875 0.08982,-0.254826 0.135189,-0.535116 0.226563,-0.789062 0.02178,-0.03762 0.02465,-0.04842 0.04492,-0.08398 -0.130728,-0.05897 -0.257791,-0.129 -0.373047,-0.228516 -0.142692,-0.07736 -0.284646,-0.155911 -0.427735,-0.232422 z m 3.558594,1.097656 c -0.03393,0.143962 -0.05932,0.292335 -0.09961,0.433594 -0.106803,0.309238 -0.116048,0.672174 -0.320313,0.927734 -0.0097,0.01216 -0.02523,0.02872 -0.03516,0.04102 0.45451,0.311451 0.883477,0.652802 1.277344,1.025391 0.04367,0.0041 0.08717,0.0098 0.130859,0.01367 0.641006,0.057 1.15963,0.112481 1.630859,0.160156 -0.08276,-0.359015 -0.202434,-0.704932 -0.414062,-0.994141 -0.273396,-0.373622 -0.721821,-0.580474 -1.095703,-0.853515 -0.353282,-0.257997 -0.700355,-0.527952 -1.074219,-0.753907 z m 0.539063,5.597657 c 0.02195,0.09921 0.0418,0.196203 0.06055,0.292968 0.04583,-0.002 0.08588,-0.0077 0.123046,-0.01367 0.01207,-0.01934 0.01905,-0.03122 0.03125,-0.05078 0.0063,-0.004 0.01319,-0.0096 0.01953,-0.01367 -0.07734,-0.0725 -0.156647,-0.142783 -0.234375,-0.214843 z m 1.636718,2.279297 c -0.01845,0.0073 -0.0359,0.01692 -0.05469,0.02344 -0.06078,0.09662 -0.108177,0.173408 -0.171875,0.275391 0.07016,-0.10354 0.144195,-0.203339 0.226562,-0.298828 z m -0.259765,0.349609 c -0.0507,0.0813 -0.08339,0.135657 -0.134766,0.21875 0.0046,1.22e-4 0.0091,-1.17e-4 0.01367,0 0.04153,-0.07203 0.07563,-0.149308 0.121094,-0.21875 z m -20.28711,3.345703 c -7.05e-4,0.03061 -0.0033,0.06118 -0.0039,0.0918 0.08972,0.0825 0.138654,0.110395 0.0625,-0.0078 -0.01848,-0.02869 -0.03992,-0.05541 -0.05859,-0.08398 z m 0.871094,2.628906 c -0.228632,0.09928 -0.461519,0.217207 -0.695312,0.339844 0.055,0.188226 0.115319,0.374061 0.166015,0.564453 0.221164,0.908466 -0.02543,1.724572 -0.33789,2.548828 0.01721,-0.09501 0.03292,-0.190292 0.05078,-0.285156 0.48886,-2.597081 -1.376382,-0.638046 -2.869141,0.501953 0.926509,-0.104832 1.850255,-0.194946 2.816407,-0.208984 0.345304,-0.005 0.693482,-0.0046 1.052734,0.0098 0.01145,4.59e-4 0.02546,-2.37e-4 0.03711,0 0.08816,-0.04311 0.175209,-0.08837 0.263672,-0.130859 -0.02526,-0.0975 -0.02988,-0.209537 -0.05469,-0.304688 -0.02381,-0.09134 -0.365255,-1.505873 -0.390625,-1.759765 -0.057,-0.570422 -0.05479,-0.916366 -0.03906,-1.275391 z m 3.208984,1.396485 c 0.01417,0.123963 0.02018,0.178843 0.03711,0.332031 3.92e-4,0.0033 0.0016,0.0065 0.002,0.0098 0.02302,0.03395 0.04301,0.06982 0.06641,0.103515 -0.03048,-0.142232 -0.05762,-0.284988 -0.07617,-0.429687 -0.0098,-0.0052 -0.01952,-0.01044 -0.0293,-0.01563 z m -1.49414,4.457031 c -0.259696,0.137295 -0.592281,0.248751 -0.97461,0.361328 -0.08732,0.02571 -0.178203,0.02548 -0.269531,0.02734 0.169796,-0.0048 0.331027,0.0081 0.449219,0.115234 0.105042,0.09524 0.128877,0.247572 0.121094,0.404297 C 74.998542,0.976485 75.361637,0.848076 75.796875,0.693355 75.574377,0.520161 75.397146,0.360506 75.294922,0.201168 Z m -5.4375,0.07813 c -0.503224,0.05752 -1.027279,0.11572 -1.56836,0.179687 -0.197341,0.514254 -0.415465,1.071254 -0.49414,1.279297 0.06011,0.01049 0.120621,0.01939 0.177734,0.03516 0.37009,-0.286961 0.735858,-0.583767 1.105469,-0.88086 0.341038,-0.274126 0.542873,-0.426575 0.779297,-0.613281 z M 65.748047,0.95313 c -1.777024,0.408915 -3.891093,0.95512 -5.037109,1.720703 -0.158012,0.105557 -0.289394,0.239522 -0.404297,0.388672 0.519223,-0.05589 1.03887,-0.09363 1.560547,-0.101562 0.222846,-0.286142 0.94525,-0.596423 1.140624,-0.6875 0.762378,-0.355394 1.607541,-0.437156 2.447266,-0.498047 0.03209,-0.09062 0.213858,-0.593776 0.292969,-0.822266 z m 6.683594,0.173828 c -0.470188,0.365538 -0.854255,0.670693 -1.228516,0.966797 0.286519,-0.07317 0.573242,-0.14552 0.859375,-0.220703 0.0571,-0.08599 0.234124,-0.322697 0.242188,-0.345703 0.05588,-0.15946 0.08674,-0.271722 0.126953,-0.400391 z m 5.398437,1.222656 c -0.178868,0.06843 -0.356067,0.14109 -0.535156,0.208985 -0.983695,0.37293 -1.983103,0.703053 -2.97461,1.054687 -0.315903,0.08127 -0.621662,0.161414 -0.933593,0.244141 -0.370717,0.643049 -0.76663,1.237745 -1.128907,1.55664 0.172277,-0.04469 0.30053,-0.07458 0.490235,-0.125 C 73.70242,5.035416 74.640433,4.723379 75.582031,4.425786 76.455997,4.149569 77.274487,3.908999 78.064453,3.626958 77.962402,3.096637 77.902185,2.752429 77.830078,2.349614 Z M 56.328125,3.929693 c 0.007,0.0041 0.01344,0.01041 0.02148,0.01562 -0.0056,-0.003 -0.0075,-0.01174 -0.01367,-0.01367 -0.0017,-5.33e-4 -0.006,-0.0014 -0.0078,-0.002 z m 22.375,1.851562 c -0.131944,0.04593 -0.250555,0.09691 -0.388672,0.142578 0.160839,0.03016 0.332968,0.09439 0.523438,0.208984 -0.04966,-0.10833 -0.08801,-0.237738 -0.134766,-0.351562 z M 64.595703,6.121099 c -0.277708,0.03997 -0.557239,0.0681 -0.835937,0.103515 0.02321,0.07869 0.0426,0.16623 0.07031,0.22461 0.06981,0.1470632 0.200761,0.2596172 0.271484,0.4062498 0.02247,0.046597 -0.0095,0.1053939 0,0.15625 0.0015,0.00783 0.0043,0.015615 0.0059,0.023437 0.0058,-9.868e-4 0.01178,-9.664e-4 0.01758,-0.00195 0.124133,-0.089419 0.24737,-0.1796256 0.365234,-0.2773437 0.04499,-0.037301 0.142641,-0.1591392 0.234375,-0.2714844 -0.05696,-0.106048 -0.100971,-0.225931 -0.128906,-0.363281 z m -3.103515,0.324218 c -1.029697,0.069669 -2.061817,0.1006724 -3.091797,0.05274 -0.04153,0.093292 -0.08782,0.1840526 -0.125,0.2792968 -0.344075,0.8813481 -0.122792,1.9136649 -0.38086,2.8222656 1.055898,-0.1469848 1.784563,-0.2450001 3.03711,-0.7304688 0.429696,-0.1665437 0.83208,-0.394578 1.230468,-0.6289062 -0.02347,-0.1124079 -0.0371,-0.2119863 -0.04687,-0.3007813 C 62.068589,7.8692721 61.968198,7.73731 61.95313,7.7070412 61.661599,7.1213767 61.597216,6.8708555 61.492193,6.445322 Z M 56.560547,9.45313 c -0.01598,-0.028037 -0.01594,0.062363 -0.02344,0.09375 l 0.09375,0.013672 c -0.02287,-0.0356 -0.04982,-0.071451 -0.07031,-0.107422 z m 26.929687,6.642578 c -0.101877,0.01539 -0.205155,0.03322 -0.355468,0.08008 -0.01253,0.0039 -0.01841,0.01567 -0.0293,0.02149 7.3e-5,0.178387 0.0026,0.356792 0.002,0.535156 0.213858,-0.03219 0.427267,-0.05241 0.640625,-0.07031 -0.137634,-0.23898 -0.219669,-0.421148 -0.257813,-0.566406 z M 87.875,29.392578 c -0.0044,0.01492 -5.1e-4,0.03006 -0.0059,0.04492 -0.01661,0.04615 -0.0501,0.08259 -0.07617,0.123047 0.07462,0.06329 0.150617,0.121416 0.220703,0.203125 0.174869,0.39589 0.140807,0.196685 0.123047,0.599609 -0.01478,0.335258 -0.126313,0.328998 -0.267578,0.207031 0.267021,0.314607 0.536386,0.639336 0.828125,0.91211 0.330582,0.309093 0.698226,0.596652 1.074218,0.849609 l -0.482422,0.484375 c 0.0046,0.0045 0.009,0.0092 0.01367,0.01367 0.433867,-0.414228 0.959872,-0.906689 0.558594,-0.427734 l -0.449178,0.53516 c 0.384921,0.373026 0.769348,0.746108 1.154297,1.119141 0.505966,0.490303 1.009076,0.984299 1.513672,1.476562 h 3.123047 V 33.097656 C 92.745249,31.891867 90.30552,30.650381 87.875,29.392578 Z m -0.498047,0.603516 c -0.007,0.0065 -0.01455,0.01295 -0.02148,0.01953 0.02278,0.02281 0.04573,0.04539 0.06836,0.06836 0.0049,-0.0048 0.0088,-0.0089 0.01367,-0.01367 -0.02039,-0.02539 -0.04089,-0.05102 -0.06055,-0.07422 z m 0.07422,0.0918 c -0.0034,0.0045 -0.0063,0.0092 -0.0098,0.01367 0.03618,0.03678 0.07317,0.0727 0.109375,0.109376 -0.03484,-0.04489 -0.06568,-0.08044 -0.09961,-0.123047 z" />
    </clipPath>
  </defs>
  <sodipodi:namedview
     id="namedview20"
     pagecolor="#ffffff"
     bordercolor="#666666"
     borderopacity="1.0"
     inkscape:pageshadow="2"
     inkscape:pageopacity="0.0"
     inkscape:pagecheckerboard="0"
     showgrid="false"
     inkscape:zoom="3.1290323"
     inkscape:cx="89.324741"
     inkscape:cy="-23.809278"
     inkscape:window-width="2500"
     inkscape:window-height="1376"
     inkscape:window-x="1980"
     inkscape:window-y="27"
     inkscape:window-maximized="1"
     inkscape:current-layer="svg18" />
  <ellipse
     style="fill:none;fill-opacity:1;stroke:#0000ff;stroke-width:5;stroke-miterlimit:4;stroke-dasharray:none;paint-order:stroke markers fill"
     id="path869"
     cx="28.405701"
     cy="37.266045"
     rx="24.735863"
     ry="25.742075"
     clip-path="url(#clipPath1358)"
     transform="translate(57.457501,60.561133)" />
  <ellipse
     style="fill:none;fill-opacity:1;stroke:#0000ff;stroke-width:5;stroke-miterlimit:4;stroke-dasharray:none;paint-order:stroke markers fill"
     id="path869-3"
     cx="67.96653"
     cy="7.2914262"
     rx="24.735863"
     ry="25.742075"
     clip-path="url(#clipPath1368)"
     transform="rotate(-18.439058,283.47217,-149.29968)" />
</svg>
