<svg xmlns="http://www.w3.org/2000/svg" version="1.2" baseProfile="tiny" width="162" height="139.5" viewBox="19 16.5 162 139.5"><path d="M25,50 l150,0 0,100 -150,0 z" stroke-width="6" stroke="Blue" fill="none" fill-opacity="0" ></path><path d="M25,50 100,110 100,90 175,150" stroke-width="6" stroke="Blue" fill="none" ></path><path d="m 115,70 20,0 0,55 -20,0 z m -25,5 20,0 0,45 -20,0 z m -25,-5 20,0 0,55 -20,0 z" stroke-width="6" stroke="none" fill="Blue" ></path><path d="m 110,100 5,0 m -30,0 5,0 m 10,27 0,-7 m -20,15 c 10,-10 30,-10 40,0" stroke-width="6" stroke="Blue" fill="none" ></path><g transform="translate(0,0)" stroke-width="6" stroke="Blue" fill="none" ><circle cx="100" cy="30" r="7.5" fill="Blue" ></circle></g></svg>