<?xml version="1.0" encoding="UTF-8" standalone="no"?>
<svg
   version="1.2"
   width="212"
   height="152"
   viewBox="-6 4 212 152"
   id="svg8"
   sodipodi:docname="zd.svg"
   inkscape:version="1.1.2 (76b9e6a115, 2022-02-25)"
   xmlns:inkscape="http://www.inkscape.org/namespaces/inkscape"
   xmlns:sodipodi="http://sodipodi.sourceforge.net/DTD/sodipodi-0.dtd"
   xmlns="http://www.w3.org/2000/svg"
   xmlns:svg="http://www.w3.org/2000/svg">
  <defs
     id="defs12" />
  <sodipodi:namedview
     id="namedview10"
     pagecolor="#ffffff"
     bordercolor="#666666"
     borderopacity="1.0"
     inkscape:pageshadow="2"
     inkscape:pageopacity="0.0"
     inkscape:pagecheckerboard="0"
     showgrid="false"
     inkscape:zoom="5.7434211"
     inkscape:cx="105.94731"
     inkscape:cy="75.912943"
     inkscape:window-width="1920"
     inkscape:window-height="1043"
     inkscape:window-x="0"
     inkscape:window-y="0"
     inkscape:window-maximized="1"
     inkscape:current-layer="svg8" />
  <path
     d="M25,50 l150,0 0,100 -150,0 z"
     stroke-width="6"
     stroke="Blue"
     fill="none"
     fill-opacity="0"
     id="path2" />
  <g
     transform="translate(0,0)"
     stroke-width="6"
     stroke="Blue"
     fill="none"
     id="g6">
    <path
       d="M0,40 l25,-25 m0,25 l-25,-25   M35,40 l25,-25 m0,25 l-25,-25   M70,40 l25,-25 m0,25 l-25,-25   M105,40 l25,-25 m0,25 l-25,-25    M140,40 l25,-25 m0,25 l-25,-25     M175,40 l25,-25 m0,25 l-25,-25"
       id="path4" />
  </g>
  <text
     xml:space="preserve"
     style="font-weight:bold;font-size:40px;line-height:1.25;font-family:sans-serif;-inkscape-font-specification:'sans-serif Bold';fill:#0000ff;fill-opacity:1"
     x="70.19046"
     y="110.47002"
     id="text6008"><tspan
       sodipodi:role="line"
       id="tspan6006"
       x="70.19046"
       y="110.47002">ZD</tspan></text>
</svg>
