<?xml version="1.0" encoding="UTF-8" standalone="no"?>
<svg
   version="1.2"
   width="162"
   height="139.5"
   viewBox="19 16.5 162 139.5"
   id="svg18"
   sodipodi:docname="ctel-civil-au-eg (copy).svg"
   inkscape:version="1.1.2 (08b2f3d93c, 2022-04-05)"
   xmlns:inkscape="http://www.inkscape.org/namespaces/inkscape"
   xmlns:sodipodi="http://sodipodi.sourceforge.net/DTD/sodipodi-0.dtd"
   xmlns="http://www.w3.org/2000/svg"
   xmlns:svg="http://www.w3.org/2000/svg">
  <defs
     id="defs22">
    <inkscape:path-effect
       effect="skeletal"
       id="path-effect14353"
       is_visible="true"
       lpeversion="1"
       pattern="M 0,18.867925 C 0,8.4528302 8.4528302,0 18.867925,0 c 10.415094,0 18.867924,8.4528302 18.867924,18.867925 0,10.415094 -8.45283,18.867924 -18.867924,18.867924 C 8.4528302,37.735849 0,29.283019 0,18.867925 Z"
       copytype="single_stretched"
       prop_scale="1"
       scale_y_rel="false"
       spacing="0"
       normal_offset="0"
       tang_offset="0"
       prop_units="false"
       vertical_pattern="false"
       hide_knot="false"
       fuse_tolerance="0" />
    <inkscape:path-effect
       effect="skeletal"
       id="path-effect14349"
       is_visible="true"
       lpeversion="1"
       pattern="M 0,18.867925 C 0,8.4528302 8.4528302,0 18.867925,0 c 10.415094,0 18.867924,8.4528302 18.867924,18.867925 0,10.415094 -8.45283,18.867924 -18.867924,18.867924 C 8.4528302,37.735849 0,29.283019 0,18.867925 Z"
       copytype="single_stretched"
       prop_scale="1"
       scale_y_rel="false"
       spacing="0"
       normal_offset="0"
       tang_offset="0"
       prop_units="false"
       vertical_pattern="false"
       hide_knot="false"
       fuse_tolerance="0" />
    <inkscape:path-effect
       effect="skeletal"
       id="path-effect14345"
       is_visible="true"
       lpeversion="1"
       pattern="M 0,18.867925 C 0,8.4528302 8.4528302,0 18.867925,0 c 10.415094,0 18.867924,8.4528302 18.867924,18.867925 0,10.415094 -8.45283,18.867924 -18.867924,18.867924 C 8.4528302,37.735849 0,29.283019 0,18.867925 Z"
       copytype="single_stretched"
       prop_scale="1"
       scale_y_rel="false"
       spacing="0"
       normal_offset="0"
       tang_offset="0"
       prop_units="false"
       vertical_pattern="false"
       hide_knot="false"
       fuse_tolerance="0" />
    <inkscape:path-effect
       effect="skeletal"
       id="path-effect13667"
       is_visible="true"
       lpeversion="1"
       pattern="M 0,18.867925 C 0,8.4528302 8.4528302,0 18.867925,0 c 10.415094,0 18.867924,8.4528302 18.867924,18.867925 0,10.415094 -8.45283,18.867924 -18.867924,18.867924 C 8.4528302,37.735849 0,29.283019 0,18.867925 Z"
       copytype="single_stretched"
       prop_scale="1"
       scale_y_rel="false"
       spacing="0"
       normal_offset="0"
       tang_offset="0"
       prop_units="false"
       vertical_pattern="false"
       hide_knot="false"
       fuse_tolerance="0" />
    <inkscape:path-effect
       effect="skeletal"
       id="path-effect13597"
       is_visible="true"
       lpeversion="1"
       pattern="M 0,18.867925 C 0,8.4528302 8.4528302,0 18.867925,0 c 10.415094,0 18.867924,8.4528302 18.867924,18.867925 0,10.415094 -8.45283,18.867924 -18.867924,18.867924 C 8.4528302,37.735849 0,29.283019 0,18.867925 Z"
       copytype="single_stretched"
       prop_scale="1"
       scale_y_rel="false"
       spacing="0"
       normal_offset="0"
       tang_offset="0"
       prop_units="false"
       vertical_pattern="false"
       hide_knot="false"
       fuse_tolerance="0" />
    <inkscape:path-effect
       effect="skeletal"
       id="path-effect13593"
       is_visible="true"
       lpeversion="1"
       pattern="M 0,18.867925 C 0,8.4528302 8.4528302,0 18.867925,0 c 10.415094,0 18.867924,8.4528302 18.867924,18.867925 0,10.415094 -8.45283,18.867924 -18.867924,18.867924 C 8.4528302,37.735849 0,29.283019 0,18.867925 Z"
       copytype="single_stretched"
       prop_scale="1"
       scale_y_rel="false"
       spacing="0"
       normal_offset="0"
       tang_offset="0"
       prop_units="false"
       vertical_pattern="false"
       hide_knot="false"
       fuse_tolerance="0" />
    <inkscape:path-effect
       effect="skeletal"
       id="path-effect13589"
       is_visible="true"
       lpeversion="1"
       pattern="M 0,18.867925 C 0,8.4528302 8.4528302,0 18.867925,0 c 10.415094,0 18.867924,8.4528302 18.867924,18.867925 0,10.415094 -8.45283,18.867924 -18.867924,18.867924 C 8.4528302,37.735849 0,29.283019 0,18.867925 Z"
       copytype="single_stretched"
       prop_scale="1"
       scale_y_rel="false"
       spacing="0"
       normal_offset="0"
       tang_offset="0"
       prop_units="false"
       vertical_pattern="false"
       hide_knot="false"
       fuse_tolerance="0" />
  </defs>
  <sodipodi:namedview
     id="namedview20"
     pagecolor="#ffffff"
     bordercolor="#666666"
     borderopacity="1.0"
     inkscape:pageshadow="2"
     inkscape:pageopacity="0.0"
     inkscape:pagecheckerboard="0"
     showgrid="false"
     inkscape:zoom="6.2580646"
     inkscape:cx="70.069587"
     inkscape:cy="76.780927"
     inkscape:window-width="2500"
     inkscape:window-height="1376"
     inkscape:window-x="1980"
     inkscape:window-y="27"
     inkscape:window-maximized="1"
     inkscape:current-layer="svg18" />
  <path
     style="fill:#0000ff;fill-opacity:1;stroke:#0000ff;stroke-width:6;stroke-linecap:butt;stroke-linejoin:miter;stroke-miterlimit:4;stroke-dasharray:none;stroke-opacity:1"
     d="m 99.787838,45.953901 -0.0081,80.803719"
     id="path862" />
  <path
     style="fill:#0000ff;fill-opacity:1;stroke:#0000ff;stroke-width:5.99999;stroke-linecap:butt;stroke-linejoin:miter;stroke-miterlimit:4;stroke-dasharray:none;stroke-opacity:1"
     d="M 29.718202,43.423748 171.2429,43.590258"
     id="path862-3" />
  <ellipse
     style="fill:#0000ff;fill-opacity:1;stroke:#0000ff;stroke-width:6;stroke-miterlimit:4;stroke-dasharray:none;stroke-opacity:1;paint-order:stroke markers fill"
     id="path50013"
     cx="99.94516"
     cy="137.67856"
     rx="8.8186102"
     ry="8.7405291" />
  <text
     xml:space="preserve"
     style="font-style:normal;font-variant:normal;font-weight:bold;font-stretch:normal;font-size:40px;line-height:1.25;font-family:Arial;-inkscape-font-specification:'Arial Bold';fill:#0000ff"
     x="85.484451"
     y="120.51748"
     id="text52231"><tspan
       sodipodi:role="line"
       id="tspan52229"
       x="85.484451"
       y="120.51748">C</tspan></text>
  <text
     xml:space="preserve"
     style="font-style:normal;font-variant:normal;font-weight:bold;font-stretch:normal;font-size:22.0793px;line-height:1.25;font-family:Arial;-inkscape-font-specification:'Arial Bold';fill:#0000ff;stroke-width:0.999995"
     x="109.6264"
     y="67.431099"
     id="text52231-6"><tspan
       sodipodi:role="line"
       id="tspan52229-7"
       x="109.6264"
       y="67.431099"
       style="stroke-width:0.999995">CIVIL</tspan></text>
  <text
     xml:space="preserve"
     style="font-style:normal;font-variant:normal;font-weight:bold;font-stretch:normal;font-size:21.1697px;line-height:1.25;font-family:Arial;-inkscape-font-specification:'Arial Bold';fill:#0000ff;stroke-width:0.999995"
     x="116.43958"
     y="128.21667"
     id="text52231-6-5"><tspan
       sodipodi:role="line"
       id="tspan52229-7-3"
       x="116.43958"
       y="128.21667"
       style="stroke-width:0.999995">IP</tspan></text>
  <text
     xml:space="preserve"
     style="font-weight:bold;font-size:19.8965px;line-height:1.25;font-family:sans-serif;-inkscape-font-specification:'sans-serif Bold';stroke-width:1"
     x="40.004955"
     y="37.138428"
     id="text2510"><tspan
       sodipodi:role="line"
       id="tspan2508"
       x="40.004955"
       y="37.138428"
       style="font-style:normal;font-variant:normal;font-weight:normal;font-stretch:normal;font-family:Arial;-inkscape-font-specification:Arial;fill:#0000ff;stroke-width:1">Santo Angelo</tspan></text>
  <path
     style="fill:#000000;stroke:none;stroke-width:1px;stroke-linecap:butt;stroke-linejoin:miter;stroke-opacity:1"
     d="m -63.121536,-96.01517 c 0,0 -0.353725,2.431168 -1.826568,6.670552 -10e-7,10e-7 -10e-7,2e-6 -10e-7,3e-6 -0.831836,2.394328 -1.954229,5.32464 -2.786065,7.718968 -0.77815,2.227311 -1.688041,4.96095 -2.237147,7.763636 -0.408247,2.083726 -0.701876,4.490832 -0.17982,6.804555 0.167722,0.743336 0.584797,1.426108 1.140012,1.982404 0.564851,0.565951 1.234782,1.011827 1.931711,1.449014 1.338798,0.839834 2.932523,1.685487 3.806043,3.105196 1.291825,2.099569 1.262018,4.871343 0.415363,7.379764 -0.760074,2.251903 -2.297806,4.593829 -4.688911,5.378686 -0.258947,0.085 -0.415273,0.345551 -0.55085,0.583665 -0.222404,0.390611 -0.379835,0.814705 -0.523845,1.244379 -0.393454,1.17393 -0.657882,2.388233 -0.894309,3.630364 -0.23411,1.229957 -0.429338,2.482641 -0.56919,3.751616 -0.05094,0.462227 -0.09566,0.928278 -0.117447,1.395942 -0.01233,0.264722 -0.03803,0.535837 0.01811,0.795855 0.03602,0.166846 0.282243,0.129144 0.447279,0.08354 0.211368,-0.05841 0.438853,-0.163798 0.643657,-0.08354 0.803025,0.314679 1.493204,0.861517 2.19459,1.38024 1.872847,1.3851 4.005551,2.617851 6.365987,3.032848 1.748885,0.307479 3.585458,0.07927 5.27609,-0.564317 1.758972,-0.6696 3.356454,-1.692075 4.941857,-2.763554 0.958863,-0.648037 1.880903,-1.293348 2.839766,-1.941385 0.83302,-0.562803 1.668364,-1.10979 2.523527,-1.623475 6.865535,-4.124031 13.082425,-7.092222 18.750962,-11.884489 3.384185,-2.861042 6.29581,-5.991166 8.15042,-9.683784 1.058776,-2.108073 1.126467,-4.693312 1.510174,-6.901703 0.213122,-1.226602 0.452388,-2.4177 0.896887,-3.541523 0.364069,-0.920473 0.886664,-1.807785 1.721284,-2.288217 8.7616818,-5.043478 17.6212788,-8.037348 23.8780958,-9.833318 1.3e-6,0 2.5e-6,0 3.8e-6,0 2.2875224,-0.656616 5.7796734,-0.701267 7.3592894,-0.855843 2.505256,-0.245157 3.92612,-0.579439 5.135151,-1.21243 1.046001,-0.547636 1.454987,-1.058868 1.454987,-1.058868 0,0 -0.408986,0.511232 -1.454987,1.058868 -1.209031,0.632991 -2.629895,0.967273 -5.135151,1.21243 -1.579616,0.154576 -5.071767,0.199227 -7.3592895,0.855842 -1.2e-6,10e-7 -2.4e-6,10e-7 -3.7e-6,10e-7 -6.256817,1.79597 -15.116414,4.78984 -23.8780958,9.833318 -0.83462,0.480432 -1.357215,1.367744 -1.721284,2.288217 -0.444499,1.123823 -0.683765,2.314921 -0.896887,3.541523 -0.383707,2.208391 -0.451398,4.79363 -1.510174,6.901703 -1.85461,3.692618 -4.766235,6.822742 -8.15042,9.683784 -5.668537,4.792267 -11.885427,7.760458 -18.750962,11.884489 -0.855163,0.513685 -1.690507,1.060672 -2.523527,1.623475 -0.941211,0.635899 -1.898555,1.305486 -2.839766,1.941385 -1.585403,1.071479 -3.182885,2.093954 -4.941857,2.763554 -1.690632,0.643584 -3.527205,0.871796 -5.27609,0.564317 -2.360436,-0.414997 -4.49314,-1.647748 -6.365987,-3.032848 -0.701386,-0.518723 -1.391565,-1.065561 -2.19459,-1.38024 -0.204804,-0.08026 -0.432289,0.02514 -0.643657,0.08354 -0.165036,0.0456 -0.411258,0.0833 -0.447279,-0.08354 -0.05613,-0.260018 -0.03044,-0.531133 -0.01811,-0.795855 0.02179,-0.467664 0.06651,-0.933715 0.117447,-1.395942 0.139852,-1.268975 0.33508,-2.521659 0.56919,-3.751616 0.236427,-1.242131 0.500855,-2.456434 0.894309,-3.630364 0.14401,-0.429674 0.301441,-0.853768 0.523845,-1.244379 0.135577,-0.238114 0.291903,-0.498668 0.55085,-0.583665 2.391105,-0.784857 3.928837,-3.126783 4.688911,-5.378686 0.846655,-2.508421 0.876462,-5.280195 -0.415363,-7.379764 -0.87352,-1.419709 -2.467245,-2.265362 -3.806043,-3.105196 -0.696929,-0.437187 -1.36686,-0.883063 -1.931711,-1.449014 -0.555215,-0.556296 -0.97229,-1.239068 -1.140012,-1.982404 -0.522056,-2.313723 -0.228427,-4.720829 0.17982,-6.804555 0.549106,-2.802686 1.458997,-5.536325 2.237147,-7.763636 0.928862,-2.658692 1.857203,-5.060276 2.786065,-7.718968 0,-10e-7 0,-2e-6 0,-3e-6 1.472844,-4.239384 1.826569,-6.670552 1.826569,-6.670552 z"
     id="path14343"
     inkscape:path-effect="#path-effect14345"
     inkscape:original-d="m -63.121536,-96.01517 c -1.125357,7.74902 -8.831799,20.970471 -7.029601,28.957714 0.721944,3.199615 5.176726,3.77196 6.877766,6.536614 2.50933,4.078346 0.02282,11.348209 -4.273548,12.75845 -1.488858,0.488703 -2.882641,10.266445 -2.637534,11.401821 0.07674,0.355456 0.752358,-0.132678 1.090936,0 0.515083,0.201844 1.676945,0.997406 2.19459,1.38024 9.550433,7.06321 14.179362,0.806167 21.947227,-3.859883 6.323485,-3.798429 12.976858,-7.002974 18.750962,-11.884489 3.250191,-2.747761 6.269253,-5.938289 8.15042,-9.683784 1.610605,-3.206791 1.040412,-10.953939 4.128345,-12.731443 7.194658,-4.141454 15.825752,-7.521956 23.8780958,-9.833318 4.0609732,-1.165672 10.9140012,-0.0742 13.9494222,-3.127132" />
  <path
     style="fill:none;stroke:#0000ff;stroke-width:1px;stroke-linecap:butt;stroke-linejoin:miter;stroke-opacity:1"
     d="m 92.180226,142.79203 c -13.904648,5.37175 -24.131466,-10.11723 -37.854698,-3.59456 -4.913202,2.33525 -3.178268,9.34784 -8.855139,11.18178 -9.127702,2.94876 -20.094766,-7.39723 -24.403945,5.5179"
     id="path14761" />
  <text
     xml:space="preserve"
     style="font-weight:bold;font-size:10.1906px;line-height:1.25;font-family:sans-serif;-inkscape-font-specification:'sans-serif Bold';stroke-width:0.999997"
     x="108.85902"
     y="154.81793"
     id="text33314"
     transform="rotate(0.18567974)"><tspan
       sodipodi:role="line"
       id="tspan33312"
       x="108.85902"
       y="154.81793"
       style="font-style:normal;font-variant:normal;font-weight:normal;font-stretch:normal;font-family:sans-serif;-inkscape-font-specification:sans-serif;fill:#0000ff;stroke-width:0.999997">1C5P</tspan></text>
</svg>
