<?xml version="1.0" encoding="UTF-8" standalone="no"?>
<svg
   version="1.2"
   width="162"
   height="139.5"
   viewBox="19 16.5 162 139.5"
   id="svg18"
   sodipodi:docname="ctel-civil-au-eg.svg"
   inkscape:version="1.1.2 (08b2f3d93c, 2022-04-05)"
   xmlns:inkscape="http://www.inkscape.org/namespaces/inkscape"
   xmlns:sodipodi="http://sodipodi.sourceforge.net/DTD/sodipodi-0.dtd"
   xmlns="http://www.w3.org/2000/svg"
   xmlns:svg="http://www.w3.org/2000/svg">
  <defs
     id="defs22">
    <inkscape:path-effect
       effect="skeletal"
       id="path-effect14353"
       is_visible="true"
       lpeversion="1"
       pattern="M 0,18.867925 C 0,8.4528302 8.4528302,0 18.867925,0 c 10.415094,0 18.867924,8.4528302 18.867924,18.867925 0,10.415094 -8.45283,18.867924 -18.867924,18.867924 C 8.4528302,37.735849 0,29.283019 0,18.867925 Z"
       copytype="single_stretched"
       prop_scale="1"
       scale_y_rel="false"
       spacing="0"
       normal_offset="0"
       tang_offset="0"
       prop_units="false"
       vertical_pattern="false"
       hide_knot="false"
       fuse_tolerance="0" />
    <inkscape:path-effect
       effect="skeletal"
       id="path-effect14349"
       is_visible="true"
       lpeversion="1"
       pattern="M 0,18.867925 C 0,8.4528302 8.4528302,0 18.867925,0 c 10.415094,0 18.867924,8.4528302 18.867924,18.867925 0,10.415094 -8.45283,18.867924 -18.867924,18.867924 C 8.4528302,37.735849 0,29.283019 0,18.867925 Z"
       copytype="single_stretched"
       prop_scale="1"
       scale_y_rel="false"
       spacing="0"
       normal_offset="0"
       tang_offset="0"
       prop_units="false"
       vertical_pattern="false"
       hide_knot="false"
       fuse_tolerance="0" />
    <inkscape:path-effect
       effect="skeletal"
       id="path-effect14345"
       is_visible="true"
       lpeversion="1"
       pattern="M 0,18.867925 C 0,8.4528302 8.4528302,0 18.867925,0 c 10.415094,0 18.867924,8.4528302 18.867924,18.867925 0,10.415094 -8.45283,18.867924 -18.867924,18.867924 C 8.4528302,37.735849 0,29.283019 0,18.867925 Z"
       copytype="single_stretched"
       prop_scale="1"
       scale_y_rel="false"
       spacing="0"
       normal_offset="0"
       tang_offset="0"
       prop_units="false"
       vertical_pattern="false"
       hide_knot="false"
       fuse_tolerance="0" />
    <inkscape:path-effect
       effect="skeletal"
       id="path-effect13667"
       is_visible="true"
       lpeversion="1"
       pattern="M 0,18.867925 C 0,8.4528302 8.4528302,0 18.867925,0 c 10.415094,0 18.867924,8.4528302 18.867924,18.867925 0,10.415094 -8.45283,18.867924 -18.867924,18.867924 C 8.4528302,37.735849 0,29.283019 0,18.867925 Z"
       copytype="single_stretched"
       prop_scale="1"
       scale_y_rel="false"
       spacing="0"
       normal_offset="0"
       tang_offset="0"
       prop_units="false"
       vertical_pattern="false"
       hide_knot="false"
       fuse_tolerance="0" />
    <inkscape:path-effect
       effect="skeletal"
       id="path-effect13597"
       is_visible="true"
       lpeversion="1"
       pattern="M 0,18.867925 C 0,8.4528302 8.4528302,0 18.867925,0 c 10.415094,0 18.867924,8.4528302 18.867924,18.867925 0,10.415094 -8.45283,18.867924 -18.867924,18.867924 C 8.4528302,37.735849 0,29.283019 0,18.867925 Z"
       copytype="single_stretched"
       prop_scale="1"
       scale_y_rel="false"
       spacing="0"
       normal_offset="0"
       tang_offset="0"
       prop_units="false"
       vertical_pattern="false"
       hide_knot="false"
       fuse_tolerance="0" />
    <inkscape:path-effect
       effect="skeletal"
       id="path-effect13593"
       is_visible="true"
       lpeversion="1"
       pattern="M 0,18.867925 C 0,8.4528302 8.4528302,0 18.867925,0 c 10.415094,0 18.867924,8.4528302 18.867924,18.867925 0,10.415094 -8.45283,18.867924 -18.867924,18.867924 C 8.4528302,37.735849 0,29.283019 0,18.867925 Z"
       copytype="single_stretched"
       prop_scale="1"
       scale_y_rel="false"
       spacing="0"
       normal_offset="0"
       tang_offset="0"
       prop_units="false"
       vertical_pattern="false"
       hide_knot="false"
       fuse_tolerance="0" />
    <inkscape:path-effect
       effect="skeletal"
       id="path-effect13589"
       is_visible="true"
       lpeversion="1"
       pattern="M 0,18.867925 C 0,8.4528302 8.4528302,0 18.867925,0 c 10.415094,0 18.867924,8.4528302 18.867924,18.867925 0,10.415094 -8.45283,18.867924 -18.867924,18.867924 C 8.4528302,37.735849 0,29.283019 0,18.867925 Z"
       copytype="single_stretched"
       prop_scale="1"
       scale_y_rel="false"
       spacing="0"
       normal_offset="0"
       tang_offset="0"
       prop_units="false"
       vertical_pattern="false"
       hide_knot="false"
       fuse_tolerance="0" />
  </defs>
  <sodipodi:namedview
     id="namedview20"
     pagecolor="#ffffff"
     bordercolor="#666666"
     borderopacity="1.0"
     inkscape:pageshadow="2"
     inkscape:pageopacity="0.0"
     inkscape:pagecheckerboard="0"
     showgrid="false"
     inkscape:zoom="6.2580646"
     inkscape:cx="70.069587"
     inkscape:cy="76.780927"
     inkscape:window-width="2500"
     inkscape:window-height="1376"
     inkscape:window-x="1980"
     inkscape:window-y="27"
     inkscape:window-maximized="1"
     inkscape:current-layer="svg18" />
  <path
     style="fill:#0000ff;fill-opacity:1;stroke:#0000ff;stroke-width:6;stroke-linecap:butt;stroke-linejoin:miter;stroke-miterlimit:4;stroke-dasharray:none;stroke-opacity:1"
     d="m 99.787838,45.953901 -0.0081,80.803719"
     id="path862" />
  <path
     style="fill:#0000ff;fill-opacity:1;stroke:#0000ff;stroke-width:5.99999;stroke-linecap:butt;stroke-linejoin:miter;stroke-miterlimit:4;stroke-dasharray:none;stroke-opacity:1"
     d="M 29.718202,43.423748 171.2429,43.590258"
     id="path862-3" />
  <ellipse
     style="fill:#0000ff;fill-opacity:1;stroke:#0000ff;stroke-width:6;stroke-miterlimit:4;stroke-dasharray:none;stroke-opacity:1;paint-order:stroke markers fill"
     id="path50013"
     cx="99.94516"
     cy="137.67856"
     rx="8.8186102"
     ry="8.7405291" />
  <text
     xml:space="preserve"
     style="font-style:normal;font-variant:normal;font-weight:bold;font-stretch:normal;font-size:40px;line-height:1.25;font-family:Arial;-inkscape-font-specification:'Arial Bold';fill:#0000ff"
     x="85.484451"
     y="120.51748"
     id="text52231"><tspan
       sodipodi:role="line"
       id="tspan52229"
       x="85.484451"
       y="120.51748">C</tspan></text>
  <text
     xml:space="preserve"
     style="font-style:normal;font-variant:normal;font-weight:bold;font-stretch:normal;font-size:22.0793px;line-height:1.25;font-family:Arial;-inkscape-font-specification:'Arial Bold';fill:#0000ff;stroke-width:0.999995"
     x="109.6264"
     y="67.431099"
     id="text52231-6"><tspan
       sodipodi:role="line"
       id="tspan52229-7"
       x="109.6264"
       y="67.431099"
       style="stroke-width:0.999995">CIVIL</tspan></text>
  <text
     xml:space="preserve"
     style="font-style:normal;font-variant:normal;font-weight:bold;font-stretch:normal;font-size:21.1697px;line-height:1.25;font-family:Arial;-inkscape-font-specification:'Arial Bold';fill:#0000ff;stroke-width:0.999995"
     x="116.43958"
     y="128.21667"
     id="text52231-6-5"><tspan
       sodipodi:role="line"
       id="tspan52229-7-3"
       x="116.43958"
       y="128.21667"
       style="stroke-width:0.999995">Au</tspan></text>
  <text
     xml:space="preserve"
     style="font-weight:bold;font-size:19.8965px;line-height:1.25;font-family:sans-serif;-inkscape-font-specification:'sans-serif Bold';stroke-width:1"
     x="18.621569"
     y="34.82246"
     id="text2510"><tspan
       sodipodi:role="line"
       id="tspan2508"
       x="18.621569"
       y="34.82246"
       style="font-style:normal;font-variant:normal;font-weight:normal;font-stretch:normal;font-family:Arial;-inkscape-font-specification:Arial;fill:#0000ff;stroke-width:1">Ribeirão do Pinhal</tspan></text>
  <path
     style="fill:#000000;stroke:none;stroke-width:1px;stroke-linecap:butt;stroke-linejoin:miter;stroke-opacity:1"
     d="m -63.121536,-96.01517 c 2.73262,0.396847 4.379025,3.489039 4.964352,9.029848 0,0 0,3e-6 0,3e-6 0.288762,2.785207 0.236038,5.498744 0.206959,8.777868 -0.01972,2.349852 -0.06028,4.85952 0.268819,6.753296 0.39125,1.551625 0.624953,2.257056 1.134889,1.327026 -0.552608,-2.295256 -1.259196,-4.020758 -2.296767,-5.095998 -0.760336,-0.805094 -0.895051,-1.181891 -0.385221,-0.918219 1.156688,-0.172754 4.303639,1.843387 9.180704,7.483058 4.126027,7.571826 5.178913,15.022094 2.823533,20.793989 -0.740983,5.717502 -5.376421,11.771426 -14.941255,16.496595 7.160858,-4.213158 10.268918,-6.575096 9.126652,-7.236853 0.672734,-1.259658 1.015133,-1.854326 0.958818,-1.785724 0.07746,-0.01064 0.114117,0.451137 -0.0055,1.403986 -0.06494,0.853597 -0.103713,1.65971 -0.101627,2.406437 0.0038,0.29672 0.01792,0.38729 0.05891,0.265438 0.22369,0.866517 0.08615,-0.407452 -0.323203,-3.874458 -14.445304,-14.722989 -21.750981,-19.363896 -22.125368,-13.60302 -2.356302,-0.894765 1.664728,-0.818527 12.126829,0.477988 4.109613,1.801642 6.261891,3.099372 6.459282,3.584238 0.965387,0.198863 0.538467,0.205555 -1.315327,-0.571542 -2.004815,-0.253958 -3.486451,-0.234386 -4.630866,0.241424 -0.467877,0.270356 -0.466802,0.06253 1.064115,-0.837403 0.766603,-0.535169 1.710121,-1.200646 2.834777,-1.95388 0.984827,-0.659585 2.105237,-1.384313 3.375821,-2.154905 7.549393,-4.593709 13.401866,-7.000843 16.74407,-9.57871 2.331335,-1.920983 4.01907,-2.895082 4.505924,-3.539303 -0.445131,2.873366 -0.643501,1.951549 0.661156,-2.00285 0.321959,-1.482182 1.020949,-3.741448 2.221484,-6.612778 0.546784,-2.683937 3.549114,-6.166161 8.815878,-9.936398 11.232919,-4.77146 21.46190442,-6.169284 28.8629723,-6.075888 0,0 5.1e-6,10e-7 5.1e-6,10e-7 5.1821036,-0.351185 7.9596726,0.860253 9.4572636,1.678417 1.759078,0.404323 3.395684,2.176472 4.131206,2.760358 1.054427,0.837045 2.253205,1.303351 3.167845,2.21274 0.91464,0.90939 1.296245,2.397742 0.257871,4.330477 -1.057608,1.968536 -3.512594,4.171913 -6.139096,5.185216 -2.37614,1.257496 -5.153875,2.297876 -5.261317,3.390104 2e-6,0 -10e-7,10e-7 -10e-7,10e-7 -4.9056307,3.456878 -12.80970933,8.503709 -18.8932192,13.590748 3.6009139,-2.81103 5.55213453,-4.512577 5.37330969,-5.359963 0.3118337,-0.625753 0.53170072,-0.498686 0.42771147,0.470267 0.48113378,0.689755 0.27505057,4.493683 -2.35919246,11.800556 -3.208689,6.715645 -7.3883365,12.052537 -11.7949165,15.828265 -7.722163,6.783445 -14.907865,10.737499 -20.757854,14.190268 -0.43969,0.256742 -0.990073,0.626059 -1.671234,1.092046 -0.784542,0.536711 -1.719189,1.185401 -2.844754,1.92889 -1.779273,1.32479 -4.694395,2.998386 -8.819599,4.689704 -4.525582,1.762977 -9.680558,2.238974 -15.183045,1.370058 -6.607503,-1.617852 -11.234161,-4.055141 -14.047302,-6.637238 -1.11203,-0.509291 -0.526811,-0.391815 2.070102,0.823758 10.050179,1.135594 13.620867,1.423434 10.839514,0.645072 -0.704135,5.852513 -8.502902,1.286146 -23.019925,-13.770104 -0.521861,-3.988541 -0.607527,-5.80174 -0.359417,-5.466168 0.0846,-1.057822 0.188067,-1.89807 0.2938,-2.526447 0.281872,-1.791348 0.633392,-3.490351 1.036754,-5.096794 0.352656,-1.527588 0.919725,-3.501685 1.783081,-5.856742 0.231464,-0.7901 0.889289,-2.23415 2.006508,-4.274482 -0.871773,-1.137427 2.550441,-4.021367 10.228352,-8.404183 -4.76678,3.14977 -6.354063,4.548978 -5.563433,5.739223 -0.668351,0.778732 0.446163,2.655731 1.992807,6.034461 3.033755,2.692907 3.19631,3.224276 1.568617,1.272666 -0.883423,-0.610298 -2.359208,-1.879653 -4.248642,-3.816247 -2.148043,-2.187936 -3.688696,-5.278774 -4.576791,-9.060806 -0.535605,-5.614906 0.288215,-9.608826 1.494528,-12.282084 1.453242,-3.760266 3.180609,-6.620536 4.743114,-8.773975 2.029497,-2.864571 4.099586,-5.09295 5.779088,-6.66007 0,0 2e-6,-2e-6 2e-6,-2e-6 3.02674,-2.979597 6.54541,-4.612175 8.617489,-4.311256 z"
     id="path14343"
     inkscape:path-effect="#path-effect14345"
     inkscape:original-d="m -63.121536,-96.01517 c -1.125357,7.74902 -8.831799,20.970471 -7.029601,28.957714 0.721944,3.199615 5.176726,3.77196 6.877766,6.536614 2.50933,4.078346 0.02282,11.348209 -4.273548,12.75845 -1.488858,0.488703 -2.882641,10.266445 -2.637534,11.401821 0.07674,0.355456 0.752358,-0.132678 1.090936,0 0.515083,0.201844 1.676945,0.997406 2.19459,1.38024 9.550433,7.06321 14.179362,0.806167 21.947227,-3.859883 6.323485,-3.798429 12.976858,-7.002974 18.750962,-11.884489 3.250191,-2.747761 6.269253,-5.938289 8.15042,-9.683784 1.610605,-3.206791 1.040412,-10.953939 4.128345,-12.731443 7.194658,-4.141454 15.825752,-7.521956 23.8780958,-9.833318 4.0609732,-1.165672 10.9140012,-0.0742 13.9494222,-3.127132" />
  <path
     style="fill:none;stroke:#0000ff;stroke-width:1px;stroke-linecap:butt;stroke-linejoin:miter;stroke-opacity:1"
     d="m 92.180226,142.79203 c -13.904648,5.37175 -24.131466,-10.11723 -37.854698,-3.59456 -4.913202,2.33525 -3.178268,9.34784 -8.855139,11.18178 -9.127702,2.94876 -20.094766,-7.39723 -24.403945,5.5179"
     id="path14761" />
  <text
     xml:space="preserve"
     style="font-weight:bold;font-size:10.1906px;line-height:1.25;font-family:sans-serif;-inkscape-font-specification:'sans-serif Bold';stroke-width:0.999997"
     x="108.69192"
     y="154.76773"
     id="text33314-3"
     transform="rotate(0.18567974)"><tspan
       sodipodi:role="line"
       id="tspan33312-6"
       x="108.69192"
       y="154.76773"
       style="font-style:normal;font-variant:normal;font-weight:normal;font-stretch:normal;font-family:sans-serif;-inkscape-font-specification:sans-serif;fill:#0000ff;stroke-width:0.999997">1C5P</tspan></text>
</svg>
